<svg xmlns="http://www.w3.org/2000/svg" xmlns:xlink="http://www.w3.org/1999/xlink" width="151.563" height="101.393" viewBox="0 0 151.563 101.393">
  <defs>
    <clipPath id="clip-path">
      <rect id="Rectangle_109" data-name="Rectangle 109" width="151.562" height="101.393" fill="none"/>
    </clipPath>
  </defs>
  <g id="_2030" data-name="2030" style="isolation: isolate">
    <rect id="Rectangle_47" data-name="Rectangle 47" width="1.705" height="1.701" transform="translate(89.285 1.835)" fill="#959597"/>
    <rect id="Rectangle_48" data-name="Rectangle 48" width="1.705" height="1.701" transform="translate(124.728 22.988)" fill="#959597"/>
    <g id="Group_1365" data-name="Group 1365">
      <g id="Group_1364" data-name="Group 1364" clip-path="url(#clip-path)">
        <path id="Path_567" data-name="Path 567" d="M353.113,28.8a2.5,2.5,0,0,0,1.012-.861,3.691,3.691,0,0,0,.543-1.361,9.212,9.212,0,0,0,.16-1.8V12.871h-1.7V24.778A8.47,8.47,0,0,1,353.049,26a2.283,2.283,0,0,1-.255.808,1.074,1.074,0,0,1-.49.446,1.976,1.976,0,0,1-.8.138,2.6,2.6,0,0,1-.873-.127l-.448,1.637a5.231,5.231,0,0,0,1.385.192,3.592,3.592,0,0,0,1.544-.3" transform="translate(-207.667 -7.633)" fill="#959597"/>
        <path id="Path_568" data-name="Path 568" d="M337.543,2.225H335.2V1.831a.79.79,0,0,1,.138-.5.688.688,0,0,1,.525-.147h1.171V0h-1.2a2.068,2.068,0,0,0-1.5.51,2.225,2.225,0,0,0-.522,1.637V3.536h3.734Z" transform="translate(-197.956)" fill="#959597"/>
        <rect id="Rectangle_49" data-name="Rectangle 49" width="1.705" height="1.701" transform="translate(121.319 22.988)" fill="#959597"/>
        <rect id="Rectangle_50" data-name="Rectangle 50" width="1.705" height="1.701" transform="translate(92.694 1.835)" fill="#959597"/>
        <path id="Path_569" data-name="Path 569" d="M321.054,23.067a6.717,6.717,0,0,0,2.247,1.02,10.772,10.772,0,0,0,2.705.329h.45l.573-1.2V24.9a2.239,2.239,0,0,1-.767,1.914,3.533,3.533,0,0,1-2.153.573,6.161,6.161,0,0,1-1.416-.149,8.254,8.254,0,0,1-1.438-.51l-.532,1.637a15.481,15.481,0,0,0,1.736.542,6.514,6.514,0,0,0,1.523.181,4.831,4.831,0,0,0,3.622-1.179,4.411,4.411,0,0,0,1.129-3.179V12.871h-2.727a8.8,8.8,0,0,0-2.876.447A6.949,6.949,0,0,0,320.9,14.54a5.46,5.46,0,0,0-1.438,1.85,5.349,5.349,0,0,0-.511,2.328,5.486,5.486,0,0,0,.565,2.583,4.974,4.974,0,0,0,1.534,1.765m0-6.028a4.17,4.17,0,0,1,1.043-1.308,4.853,4.853,0,0,1,1.48-.84,5.1,5.1,0,0,1,1.671-.295v0H328l-.973.485v7.638H325.3a5.91,5.91,0,0,1-1.8-.267,4.505,4.505,0,0,1-1.481-.776,3.588,3.588,0,0,1-1-1.254,3.83,3.83,0,0,1-.363-1.7,3.6,3.6,0,0,1,.395-1.68" transform="translate(-189.147 -7.633)" fill="#959597"/>
        <path id="Path_570" data-name="Path 570" d="M209.05,28.858h3.542V27.584c.035.06.068.121.106.177a2.493,2.493,0,0,0,1.012.862,3.59,3.59,0,0,0,1.544.3h31.074V12.871h-1.7V27.219H215.318a1.967,1.967,0,0,1-.8-.138,1.074,1.074,0,0,1-.49-.446,2.294,2.294,0,0,1-.255-.808A8.5,8.5,0,0,1,213.7,24.6V12.871h-4.605a7.838,7.838,0,0,0-7.92,7.993v.044a7.765,7.765,0,0,0,7.876,7.949m-6.062-8.038a6.077,6.077,0,0,1,6.062-6.337h3.988l-1.044.52v9.6a9.143,9.143,0,0,0,.16,1.8,4.108,4.108,0,0,0,.264.846h-3.325a6.151,6.151,0,0,1-6.106-6.381Z" transform="translate(-119.3 -7.633)" fill="#959597"/>
        <path id="Path_571" data-name="Path 571" d="M163.073,24.607l.742,1.96L152.991,12.826H151.3V28.8h1.761V16.76l-1-2.328L163.392,28.8h1.441V12.826h-1.76Z" transform="translate(-89.724 -7.606)" fill="#959597"/>
        <path id="Path_572" data-name="Path 572" d="M212.609,91.769l9.825-9.363V75.979H196.177v7.313h13.464l5-3.208L202.172,92.6,203.5,98.03h3.552c4.774,0,7.606,1.773,7.606,4.931v.11c0,2.881-2.276,4.709-5.5,4.709-3.941,0-6.717-1.661-9.381-4.654l-5.884,5.6c3.33,3.934,8.16,6.7,15.154,6.7,8.661,0,13.989-5.374,13.989-12.688v-.111c0-7.2-5.163-9.973-10.436-10.859" transform="translate(-114.987 -45.057)" fill="#959597"/>
        <path id="Path_573" data-name="Path 573" d="M112.114,12.154a8.1,8.1,0,0,0-8.184,8.26v.045a8.162,8.162,0,1,0,16.323-.045v-.046a8.024,8.024,0,0,0-8.139-8.214m6.263,8.305a6.279,6.279,0,0,1-6.263,6.548,6.356,6.356,0,0,1-6.31-6.593v-.046a6.28,6.28,0,0,1,6.264-6.547,6.355,6.355,0,0,1,6.309,6.594Z" transform="translate(-61.633 -7.208)" fill="#959597"/>
        <path id="Path_574" data-name="Path 574" d="M291.633,74.344c-11.99,0-20.706,9.031-20.706,20.056v.112c0,11.026,8.6,19.946,20.6,19.946s20.706-9.032,20.706-20.058v-.111c0-11.025-8.6-19.945-20.6-19.945m11.658,20.167c0,6.648-4.774,12.078-11.658,12.078s-11.768-5.541-11.768-12.19v-.111c0-6.648,4.775-12.077,11.658-12.077s11.769,5.541,11.769,12.188Z" transform="translate(-160.666 -44.088)" fill="#959597"/>
        <rect id="Rectangle_51" data-name="Rectangle 51" width="1.806" height="15.971" transform="translate(37.376 5.22)" fill="#959597"/>
        <path id="Path_575" data-name="Path 575" d="M8.877,109.521l1.65-1.271,8.492-6.543c6.883-5.318,10.214-8.532,10.214-15.015v-.11c0-7.258-5.329-11.968-13.378-11.968-6.939,0-10.658,2.826-14.489,8.035l6,4.819c2.886-3.546,4.94-5.207,7.938-5.207,3.053,0,5.219,1.773,5.219,5.042,0,3.213-1.888,5.318-6.717,9.308L.866,107.193v6.76H29.622v-7.37H14.805Z" transform="translate(-0.514 -44.248)" fill="#959597"/>
        <path id="Path_576" data-name="Path 576" d="M8.482,28.912l6.88-16.086H13.421L7.981,25.919l.174,1.755L7.7,26.585,3,15.2l-.984-2.379H0L6.882,28.912Z" transform="translate(-0.001 -7.606)" fill="#959597"/>
        <rect id="Rectangle_52" data-name="Rectangle 52" width="1.806" height="15.971" transform="translate(17.816 5.221)" fill="#959597"/>
        <path id="Path_577" data-name="Path 577" d="M61.817,19.612c-3.521-.753-4.344-1.6-4.344-3.1v-.046c0-1.437,1.326-2.578,3.406-2.578A7.037,7.037,0,0,1,65.5,15.619l1.051-1.391a8.358,8.358,0,0,0-5.623-1.963c-3.041,0-5.258,1.848-5.258,4.358v.045c0,2.624,1.691,3.811,5.372,4.609,3.361.707,4.161,1.551,4.161,3.035v.045c0,1.575-1.417,2.715-3.565,2.715a7.63,7.63,0,0,1-5.488-2.258l-1.12,1.323a9.37,9.37,0,0,0,6.538,2.556c3.177,0,5.464-1.781,5.464-4.518V24.13c0-2.441-1.645-3.742-5.212-4.518" transform="translate(-32.632 -7.273)" fill="#959597"/>
        <path id="Path_578" data-name="Path 578" d="M125.844,68.076l1.969,1.885-1.889,1.964-1.968-1.885Z" transform="translate(-73.508 -40.37)" fill="#0d2a65"/>
        <path id="Path_579" data-name="Path 579" d="M139.664,70.04l1.967,1.885,1.889-1.964-1.968-1.885Z" transform="translate(-82.824 -40.371)" fill="#9a9a9d"/>
        <path id="Path_580" data-name="Path 580" d="M132.855,76.756l1.533,1.467,1.47-1.529-1.532-1.467Z" transform="translate(-78.786 -44.611)" fill="#cdcc1b"/>
        <path id="Path_581" data-name="Path 581" d="M146.659,78.818l1.532,1.468,1.47-1.529-1.532-1.468Z" transform="translate(-86.972 -45.834)" fill="#6ea930"/>
        <path id="Path_582" data-name="Path 582" d="M126.7,82.5l1.532,1.468,1.47-1.529-1.531-1.468Z" transform="translate(-75.135 -48.018)" fill="#cdcc1b"/>
        <path id="Path_583" data-name="Path 583" d="M139.331,82.937l1.531,1.468,1.47-1.529L140.8,81.408Z" transform="translate(-82.626 -48.277)" fill="#22a7ad"/>
        <path id="Path_584" data-name="Path 584" d="M134.391,87.92l1.078,1.033,1.034-1.076-1.078-1.033Z" transform="translate(-79.696 -51.501)" fill="#6ea930"/>
        <path id="Path_585" data-name="Path 585" d="M144.38,89.913l1.078,1.033,1.035-1.076-1.078-1.032Z" transform="translate(-85.62 -52.683)" fill="#58a445"/>
        <rect id="Rectangle_53" data-name="Rectangle 53" width="3.399" height="3.393" transform="translate(67.64 29.049) rotate(-10.384)" fill="#0074bc"/>
        <rect id="Rectangle_54" data-name="Rectangle 54" width="2.727" height="2.722" transform="translate(63.277 30.445) rotate(-10.378)" fill="#062d5a"/>
        <rect id="Rectangle_55" data-name="Rectangle 55" width="2.727" height="2.722" transform="matrix(0.984, -0.18, 0.18, 0.984, 68.461, 34.179)" fill="#22a7ad"/>
        <rect id="Rectangle_56" data-name="Rectangle 56" width="2.124" height="2.119" transform="translate(64.762 34.568) rotate(-10.378)" fill="#cdcc1b"/>
        <rect id="Rectangle_57" data-name="Rectangle 57" width="2.123" height="2.119" transform="translate(68.826 38.529) rotate(-10.378)" fill="#9a9a9d"/>
        <rect id="Rectangle_58" data-name="Rectangle 58" width="2.124" height="2.12" transform="translate(61.632 35.416) rotate(-10.378)" fill="#22a7ad"/>
        <rect id="Rectangle_59" data-name="Rectangle 59" width="2.123" height="2.119" transform="translate(65.424 38.147) rotate(-10.378)" fill="#6ea930"/>
        <rect id="Rectangle_60" data-name="Rectangle 60" width="1.494" height="1.492" transform="translate(62.763 38.399) rotate(-10.393)" fill="#9a9a9d"/>
        <rect id="Rectangle_61" data-name="Rectangle 61" width="1.494" height="1.491" transform="translate(65.585 41.431) rotate(-10.362)" fill="#58a445"/>
        <path id="Path_586" data-name="Path 586" d="M188.5,98.236l-1.461,3.065,3.07,1.457,1.46-3.064Z" transform="translate(-110.92 -58.256)" fill="#0d2a65"/>
        <path id="Path_587" data-name="Path 587" d="M178.217,94.758l-1.172,2.458,2.463,1.169,1.172-2.458Z" transform="translate(-104.992 -56.193)" fill="#22a7ad"/>
        <path id="Path_588" data-name="Path 588" d="M183.169,109.635,182,112.094l2.463,1.168,1.172-2.458Z" transform="translate(-107.929 -65.016)" fill="#6ea930"/>
        <path id="Path_589" data-name="Path 589" d="M175.618,105.106l-.912,1.914,1.918.911.913-1.914Z" transform="translate(-103.604 -62.33)" fill="#cdcc1b"/>
        <path id="Path_590" data-name="Path 590" d="M178.009,118.83l-.913,1.914,1.917.911.914-1.914Z" transform="translate(-105.022 -70.469)" fill="#cdcc1b"/>
        <path id="Path_591" data-name="Path 591" d="M168.158,102.306l-.913,1.914,1.918.911.913-1.914Z" transform="translate(-99.18 -60.669)" fill="#0074bc"/>
        <path id="Path_592" data-name="Path 592" d="M171.782,113.187l-.913,1.914,1.917.911.914-1.914Z" transform="translate(-101.329 -67.122)" fill="#9a9a9d"/>
        <path id="Path_593" data-name="Path 593" d="M166.508,109.871l-.642,1.347,1.349.64.642-1.346Z" transform="translate(-98.362 -65.156)" fill="#6ea930"/>
        <rect id="Rectangle_62" data-name="Rectangle 62" width="1.491" height="1.493" transform="matrix(0.43, -0.903, 0.903, 0.43, 68.016, 50.168)" fill="#22a7ad"/>
        <path id="Path_594" data-name="Path 594" d="M190.354,134.289l-2.98,1.632,1.635,2.975,2.98-1.632Z" transform="translate(-111.116 -79.636)" fill="#0074bc"/>
        <path id="Path_595" data-name="Path 595" d="M184.57,125.215l-2.391,1.309,1.311,2.386,2.391-1.309Z" transform="translate(-108.036 -74.255)" fill="#22a7ad"/>
        <path id="Path_596" data-name="Path 596" d="M179.864,140.172l-2.391,1.309,1.312,2.387,2.391-1.309Z" transform="translate(-105.245 -83.125)" fill="#22a7ad"/>
        <path id="Path_597" data-name="Path 597" d="M176.86,131.868,175,132.888l1.021,1.857,1.863-1.019Z" transform="translate(-103.778 -78.201)" fill="#0d2a65"/>
        <path id="Path_598" data-name="Path 598" d="M170.754,144.394l-1.862,1.02,1.022,1.857,1.862-1.019Z" transform="translate(-100.156 -85.629)" fill="#58a445"/>
        <path id="Path_599" data-name="Path 599" d="M172.452,125.241l-1.862,1.019,1.022,1.859,1.863-1.02Z" transform="translate(-101.163 -74.271)" fill="#062d5a"/>
        <path id="Path_600" data-name="Path 600" d="M169.011,136.181l-1.862,1.02,1.022,1.857,1.862-1.019Z" transform="translate(-99.123 -80.759)" fill="#cdcc1b"/>
        <path id="Path_601" data-name="Path 601" d="M167.163,130.183l-1.31.717.719,1.307,1.309-.717Z" transform="translate(-98.354 -77.201)" fill="#9a9a9d"/>
        <path id="Path_602" data-name="Path 602" d="M162.266,139.1l-1.31.717.718,1.307,1.31-.717Z" transform="translate(-95.45 -82.489)" fill="#22a7ad"/>
        <rect id="Rectangle_63" data-name="Rectangle 63" width="3.394" height="3.4" transform="matrix(0.123, -0.992, 0.992, 0.123, 68.186, 70.468)" fill="#6ea930"/>
        <rect id="Rectangle_64" data-name="Rectangle 64" width="2.722" height="2.727" transform="matrix(0.123, -0.992, 0.992, 0.123, 68.908, 65.31)" fill="#062d5a"/>
        <rect id="Rectangle_65" data-name="Rectangle 65" width="2.722" height="2.727" transform="matrix(0.123, -0.992, 0.992, 0.123, 63.787, 69.128)" fill="#22a7ad"/>
        <rect id="Rectangle_66" data-name="Rectangle 66" width="2.12" height="2.123" transform="matrix(0.123, -0.992, 0.992, 0.123, 65.196, 64.967)" fill="#6ea930"/>
        <rect id="Rectangle_67" data-name="Rectangle 67" width="2.12" height="2.124" transform="matrix(0.123, -0.992, 0.992, 0.123, 60.192, 67.65)" fill="#9a9a9d"/>
        <rect id="Rectangle_68" data-name="Rectangle 68" width="2.12" height="2.124" transform="translate(65.321 61.732) rotate(-82.935)" fill="#9a9a9d"/>
        <rect id="Rectangle_69" data-name="Rectangle 69" width="2.12" height="2.124" transform="translate(61.576 64.525) rotate(-82.935)" fill="#6ea930"/>
        <rect id="Rectangle_70" data-name="Rectangle 70" width="1.491" height="1.493" transform="matrix(0.123, -0.992, 0.992, 0.123, 62.834, 61.368)" fill="#9a9a9d"/>
        <rect id="Rectangle_71" data-name="Rectangle 71" width="1.491" height="1.494" transform="matrix(0.123, -0.992, 0.992, 0.123, 59.091, 63.147)" fill="#9a9a9d"/>
        <path id="Path_603" data-name="Path 603" d="M136.861,177.753l-2.492-2.309-2.313,2.487,2.492,2.308Z" transform="translate(-78.313 -104.042)" fill="#cdcc1b"/>
        <path id="Path_604" data-name="Path 604" d="M135.733,60.971l-2.492-2.309-2.313,2.487,2.492,2.308Z" transform="translate(-77.644 -34.788)" fill="#6ea930"/>
        <path id="Path_605" data-name="Path 605" d="M144.779,169.265l-2-1.852-1.855,1.995,2,1.851Z" transform="translate(-83.571 -99.279)" fill="#22a7ad"/>
        <path id="Path_606" data-name="Path 606" d="M129.073,169.525l-2-1.852-1.855,1.995,2,1.851Z" transform="translate(-74.257 -99.434)" fill="#6ea930"/>
        <path id="Path_607" data-name="Path 607" d="M137.021,163.928l-1.557-1.442-1.444,1.553,1.556,1.442Z" transform="translate(-79.477 -96.357)" fill="#0074bc"/>
        <path id="Path_608" data-name="Path 608" d="M123.187,162.093l-1.556-1.442-1.444,1.553,1.557,1.443Z" transform="translate(-71.273 -95.27)" fill="#cdcc1b"/>
        <path id="Path_609" data-name="Path 609" d="M141.932,157.664l-1.557-1.442-1.444,1.553,1.556,1.442Z" transform="translate(-82.389 -92.643)" fill="#cdcc1b"/>
        <path id="Path_610" data-name="Path 610" d="M130.446,157.854l-1.557-1.442-1.444,1.553L129,159.407Z" transform="translate(-75.577 -92.756)" fill="#9a9a9d"/>
        <path id="Path_611" data-name="Path 611" d="M136.609,154.073l-1.095-1.015-1.016,1.093,1.095,1.015Z" transform="translate(-79.76 -90.767)" fill="#062d5a"/>
        <path id="Path_612" data-name="Path 612" d="M126.587,152.247l-1.094-1.014-1.017,1.092,1.095,1.015Z" transform="translate(-73.817 -89.684)" fill="#9a9a9d"/>
        <rect id="Rectangle_72" data-name="Rectangle 72" width="3.4" height="3.393" transform="translate(40.027 68.231) rotate(-11.33)" fill="#0074bc"/>
        <rect id="Rectangle_73" data-name="Rectangle 73" width="2.727" height="2.722" transform="matrix(0.981, -0.196, 0.196, 0.981, 45.159, 67.288)" fill="#22a7ad"/>
        <rect id="Rectangle_74" data-name="Rectangle 74" width="2.727" height="2.722" transform="translate(39.913 63.642) rotate(-11.345)" fill="#6ea930"/>
        <rect id="Rectangle_75" data-name="Rectangle 75" width="2.123" height="2.12" transform="translate(44.314 63.663) rotate(-11.327)" fill="#cdcc1b"/>
        <rect id="Rectangle_76" data-name="Rectangle 76" width="2.123" height="2.12" transform="translate(47.429 62.763) rotate(-11.327)" fill="#0d2a65"/>
        <rect id="Rectangle_77" data-name="Rectangle 77" width="2.123" height="2.12" transform="translate(43.593 60.096) rotate(-11.327)" fill="#0074bc"/>
        <rect id="Rectangle_78" data-name="Rectangle 78" width="1.494" height="1.491" transform="translate(46.991 60.292) rotate(-11.319)" fill="#6ea930"/>
        <rect id="Rectangle_79" data-name="Rectangle 79" width="1.494" height="1.491" transform="translate(44.119 57.308) rotate(-11.35)" fill="#9a9a9d"/>
        <path id="Path_613" data-name="Path 613" d="M78.8,141.185l1.409-3.087-3.094-1.407L75.7,139.778Z" transform="translate(-44.895 -81.061)" fill="#22a7ad"/>
        <path id="Path_614" data-name="Path 614" d="M90.453,145.782l1.131-2.477L89.1,142.176l-1.131,2.477Z" transform="translate(-52.169 -84.314)" fill="#cdcc1b"/>
        <path id="Path_615" data-name="Path 615" d="M85.254,130.987l1.131-2.477L83.9,127.381l-1.131,2.478Z" transform="translate(-49.085 -75.54)" fill="#0074bc"/>
        <rect id="Rectangle_80" data-name="Rectangle 80" width="2.12" height="2.122" transform="translate(37.495 56.358) rotate(-65.486)" fill="#22a7ad"/>
        <path id="Path_616" data-name="Path 616" d="M100.414,148.4l.881-1.929-1.932-.878-.881,1.929Z" transform="translate(-58.402 -86.339)" fill="#9a9a9d"/>
        <rect id="Rectangle_81" data-name="Rectangle 81" width="2.12" height="2.122" transform="translate(36.429 50.789) rotate(-65.477)" fill="#0d2a65"/>
        <rect id="Rectangle_82" data-name="Rectangle 82" width="2.12" height="2.122" transform="translate(40.549 57.447) rotate(-65.477)" fill="#58a445"/>
        <path id="Path_617" data-name="Path 617" d="M97.761,128.4l.881-1.929-1.932-.879-.88,1.929Z" transform="translate(-56.828 -74.481)" fill="#cdcc1b"/>
        <path id="Path_618" data-name="Path 618" d="M104.317,132.839l.619-1.356-1.36-.619-.619,1.357Z" transform="translate(-61.056 -77.605)" fill="#062d5a"/>
        <path id="Path_619" data-name="Path 619" d="M102.894,122.771l.619-1.357-1.36-.618-.619,1.357Z" transform="translate(-60.212 -71.635)" fill="#6ea930"/>
        <path id="Path_620" data-name="Path 620" d="M76.189,105.01l2.954-1.68-1.685-2.948-2.953,1.68Z" transform="translate(-44.183 -59.529)" fill="#22a7ad"/>
        <path id="Path_621" data-name="Path 621" d="M83.468,115.307l2.369-1.348-1.352-2.365-2.369,1.349Z" transform="translate(-48.697 -66.177)" fill="#6ea930"/>
        <path id="Path_622" data-name="Path 622" d="M87.925,100.272l2.369-1.348-1.352-2.365-2.369,1.349Z" transform="translate(-51.34 -57.261)" fill="#062d5a"/>
        <path id="Path_623" data-name="Path 623" d="M92.274,109.712l1.844-1.05-1.052-1.841-1.844,1.05Z" transform="translate(-54.096 -63.347)" fill="#0074bc"/>
        <path id="Path_624" data-name="Path 624" d="M98.172,97.087l1.844-1.05L98.964,94.2l-1.844,1.05Z" transform="translate(-57.594 -55.86)" fill="#6ea930"/>
        <path id="Path_625" data-name="Path 625" d="M96.789,116.264l1.845-1.05-1.052-1.842-1.845,1.05Z" transform="translate(-56.774 -67.233)" fill="#22a7ad"/>
        <path id="Path_626" data-name="Path 626" d="M100.049,105.269l1.845-1.05-1.052-1.842L99,103.428Z" transform="translate(-58.708 -60.712)" fill="#cdcc1b"/>
        <path id="Path_627" data-name="Path 627" d="M103.255,112.473l1.3-.739-.74-1.295-1.3.738Z" transform="translate(-60.793 -65.493)" fill="#9a9a9d"/>
        <path id="Path_628" data-name="Path 628" d="M108,103.477l1.3-.739-.74-1.295-1.3.739Z" transform="translate(-63.609 -60.158)" fill="#6ea930"/>
        <rect id="Rectangle_83" data-name="Rectangle 83" width="3.393" height="3.399" transform="matrix(0.106, -0.994, 0.994, 0.106, 39.052, 32.499)" fill="#6ea930"/>
        <rect id="Rectangle_84" data-name="Rectangle 84" width="2.722" height="2.728" transform="translate(39.155 37.071) rotate(-83.894)" fill="#9a9a9d"/>
        <rect id="Rectangle_85" data-name="Rectangle 85" width="2.722" height="2.728" transform="translate(44.213 33.168) rotate(-83.894)" fill="#22a7ad"/>
        <rect id="Rectangle_86" data-name="Rectangle 86" width="2.12" height="2.124" transform="translate(43.538 36.818) rotate(-83.884)" fill="#cdcc1b"/>
        <rect id="Rectangle_87" data-name="Rectangle 87" width="2.12" height="2.123" transform="translate(48.497 34.053) rotate(-83.904)" fill="#0074bc"/>
        <rect id="Rectangle_88" data-name="Rectangle 88" width="2.12" height="2.124" transform="translate(43.465 40.055) rotate(-83.883)" fill="#22a7ad"/>
        <rect id="Rectangle_89" data-name="Rectangle 89" width="2.12" height="2.123" transform="translate(47.164 37.2) rotate(-83.882)" fill="#6ea930"/>
        <rect id="Rectangle_90" data-name="Rectangle 90" width="1.491" height="1.494" transform="matrix(0.106, -0.994, 0.994, 0.106, 46.652, 39.819)" fill="#062d5a"/>
        <rect id="Rectangle_91" data-name="Rectangle 91" width="1.491" height="1.495" transform="matrix(0.106, -0.994, 0.994, 0.106, 50.366, 37.979)" fill="#9a9a9d"/>
        <path id="Path_629" data-name="Path 629" d="M131.647,109.283a6.962,6.962,0,0,0-1.348-.583,8.026,8.026,0,0,0-3.708-.271,8.969,8.969,0,0,0-1.6.414l-.16.057a8.822,8.822,0,0,0-.85.378q-.363.184-.725.4a17.278,17.278,0,0,0-1.616,1.109,34.618,34.618,0,0,1-.166-8.623.012.012,0,0,1,.02-.009c1.281.806.922,3.058.653,3.7-.005.013.014.022.023.011a3.973,3.973,0,0,0,.489-4.493c-.008-.012.009-.024.02-.015a3.639,3.639,0,0,1,.578.589,3.5,3.5,0,0,1,.725,1.912,5.715,5.715,0,0,1,0,.865c0,.067-.01.131-.015.192,0,.01.007.012.015.01s.007,0,.009,0a3.689,3.689,0,0,0-.009-3.367,4.215,4.215,0,0,0-.725-.991c-.09-.092-.186-.185-.289-.275a.013.013,0,0,1,.011-.022,2.793,2.793,0,0,1,.278.082,2.726,2.726,0,0,1,.725.381,3.009,3.009,0,0,1,1.011,1.361,3.435,3.435,0,0,1,.234,1.244.012.012,0,0,0,.024,0,3.1,3.1,0,0,0-.259-2.544,3,3,0,0,0-1.011-.976,3.251,3.251,0,0,0-.725-.323,2.1,2.1,0,0,0-.347-.077c-.015,0-.011-.023,0-.025q.179-.016.344-.018a3.552,3.552,0,0,1,.725.059,2.636,2.636,0,0,1,1.011.4,2.111,2.111,0,0,1,.678.725c.006.012.025,0,.024-.009a2.033,2.033,0,0,0-.7-1.364,2.6,2.6,0,0,0-1.011-.532,2.9,2.9,0,0,0-.725-.1,2.281,2.281,0,0,0-.905.162c-.011.005-.022-.009-.015-.019a1.709,1.709,0,0,1,.92-.65,2.081,2.081,0,0,1,.725-.086,1.613,1.613,0,0,1,.594.14.013.013,0,0,0,.014-.02,2.268,2.268,0,0,0-.608-.492,1.942,1.942,0,0,0-.725-.237,1.816,1.816,0,0,0-1.745.865.013.013,0,0,1-.021,0c-.084-.15-.165-.317-.241-.492a5.819,5.819,0,0,1-.4-1.317.011.011,0,1,0-.022,0,5.869,5.869,0,0,1-.4,1.323c-.076.173-.156.337-.239.486a.012.012,0,0,1-.021,0,1.868,1.868,0,0,0-3.078-.136.012.012,0,0,0,.014.02,1.9,1.9,0,0,1,2.238.6.013.013,0,0,1-.015.019,2.663,2.663,0,0,0-2.872.711,2.023,2.023,0,0,0-.47,1.127c0,.014.018.022.024.009a1.983,1.983,0,0,1,.445-.546,2.933,2.933,0,0,1,2.311-.619c.015,0,.018.024,0,.025a3.059,3.059,0,0,0-2.314,1.851,3.316,3.316,0,0,0-.027,2.069.012.012,0,0,0,.024,0c0-.018,0-.038,0-.057a3.064,3.064,0,0,1,2.246-3.012.013.013,0,0,1,.011.022,3.749,3.749,0,0,0-1.023,4.633.012.012,0,0,0,.024-.006A3.8,3.8,0,0,1,119,101.361c.011-.009.028,0,.02.015a3.973,3.973,0,0,0,.489,4.493c.009.011.028,0,.023-.011-.268-.644-.627-2.9.653-3.7a.013.013,0,0,1,.02.009,34.559,34.559,0,0,1-.166,8.623,13.113,13.113,0,0,0-3.191-1.889c-.133-.05-.264-.095-.393-.137a8.432,8.432,0,0,0-3.015-.429,7.791,7.791,0,0,0-3.112.787c-.121.06-.223.116-.3.162a.03.03,0,0,0,.026.054c.093-.03.185-.055.277-.081a8.608,8.608,0,0,1,3.112-.305,9.281,9.281,0,0,1,3.015.811,15.958,15.958,0,0,1,3.588,2.336,39.312,39.312,0,0,1-3.588,3.067c-.04.022-.078.044-.115.063a.839.839,0,0,0-1.5.3.811.811,0,0,0,.163.724,1.206,1.206,0,0,0,1.448.211c1.052-.442,2.363-1.835,3.973-3.308.134-.123.27-.247.409-.37.138.122.273.245.407.367.729.667,1.4,1.318,2.007,1.872.252.228.493.439.725.628a6.357,6.357,0,0,0,1.011.7,1.311,1.311,0,0,0,1.6-.035c.025-.022.05-.042.074-.066a.936.936,0,0,0,.164-.724.846.846,0,0,0-.63-.622.84.84,0,0,0-.867.326,3.045,3.045,0,0,1-.347-.212,11.877,11.877,0,0,1-1.011-.815c-.228-.2-.47-.418-.725-.65-.5-.451-1.041-.95-1.621-1.455a20.12,20.12,0,0,1,1.621-1.225q.355-.24.725-.462c.328-.195.665-.376,1.011-.541a10.319,10.319,0,0,1,1.6-.614,8.482,8.482,0,0,1,3.708-.23,9.311,9.311,0,0,1,1.321.311.03.03,0,0,0,.027-.054" transform="translate(-65.239 -57.163)" fill="#5c646c"/>
        <rect id="Rectangle_92" data-name="Rectangle 92" width="1.002" height="1" transform="translate(7.893 89.077)" fill="#959597"/>
        <path id="Path_630" data-name="Path 630" d="M163.061,206.408V199.8h-.975v5.634H158.4V199.8h-.975v5.634H153.55V199.8h-1.536a5.215,5.215,0,0,0-1.659.249,3.823,3.823,0,0,0-1.268.693,3.086,3.086,0,0,0-.811,1.053,3.043,3.043,0,0,0-.287,1.314,3.121,3.121,0,0,0,.33,1.485,2.972,2.972,0,0,0,.877,1.023,3.791,3.791,0,0,0,1.28.6,5.909,5.909,0,0,0,1.537.195Zm-12.481-1.131a2.553,2.553,0,0,1-.841-.457,2.132,2.132,0,0,1-.567-.731,2.234,2.234,0,0,1-.208-.98,2.034,2.034,0,0,1,.226-.955,2.418,2.418,0,0,1,.6-.743,2.689,2.689,0,0,1,.847-.474,2.971,2.971,0,0,1,.976-.164h.964v4.661h-.964a3.289,3.289,0,0,1-1.03-.158" transform="translate(-87.761 -118.486)" fill="#959597"/>
        <rect id="Rectangle_93" data-name="Rectangle 93" width="0.976" height="8.735" transform="translate(54.434 79.187)" fill="#959597"/>
        <rect id="Rectangle_94" data-name="Rectangle 94" width="1.002" height="1" transform="translate(64.782 79.187)" fill="#959597"/>
        <rect id="Rectangle_95" data-name="Rectangle 95" width="1.002" height="1" transform="translate(74.311 89.066)" fill="#959597"/>
        <rect id="Rectangle_96" data-name="Rectangle 96" width="1.002" height="1" transform="translate(9.602 89.077)" fill="#959597"/>
        <path id="Path_631" data-name="Path 631" d="M78.123,202.335h-1.6a3.04,3.04,0,0,1-1.342-.243,1.8,1.8,0,0,1-.768-.73,4.2,4.2,0,0,0,.085-.913v-3.14h-.976v3.3a1.945,1.945,0,0,1-.451,1.345,1.739,1.739,0,0,1-1.366.5,2.184,2.184,0,0,1-.78-.133,1.92,1.92,0,0,1-.61-.365,1.725,1.725,0,0,1-.4-.542,1.672,1.672,0,0,1-.158-.664v-3.444h-.976v3.372a1.916,1.916,0,0,1-.133.761,1.407,1.407,0,0,1-.366.511,1.45,1.45,0,0,1-.525.292,2.064,2.064,0,0,1-.621.091h-1.89v-5.026h-.975v5.026H59.149l1.707-4.077a8.682,8.682,0,0,0-.829-.639,7.3,7.3,0,0,0-.9-.523,5.331,5.331,0,0,0-.939-.353,3.615,3.615,0,0,0-.939-.128,3.654,3.654,0,0,0-.951.128,5.823,5.823,0,0,0-.946.347,5.979,5.979,0,0,0-.9.524,8.489,8.489,0,0,0-.812.645l1.719,4.077H51.979V196.7H50.418a5.053,5.053,0,0,0-1.647.255,3.973,3.973,0,0,0-1.273.7,3.114,3.114,0,0,0-.823,1.059,3.058,3.058,0,0,0-.293,1.333,3.139,3.139,0,0,0,.323,1.479,2.845,2.845,0,0,0,.879,1.011,3.837,3.837,0,0,0,1.286.584,6.169,6.169,0,0,0,1.549.189H51v.28a1.282,1.282,0,0,1-.439,1.1,2.02,2.02,0,0,1-1.232.328,3.55,3.55,0,0,1-.812-.085,4.749,4.749,0,0,1-.823-.293l-.3.937a8.85,8.85,0,0,0,.994.31,3.741,3.741,0,0,0,.871.1,2.766,2.766,0,0,0,2.073-.675,2.524,2.524,0,0,0,.646-1.82v-.182H67.136A2.582,2.582,0,0,0,68.4,203a2.509,2.509,0,0,0,.9-.816,2.476,2.476,0,0,0,.963.913,3.026,3.026,0,0,0,1.451.328,3.342,3.342,0,0,0,1.494-.3,2.087,2.087,0,0,0,.945-.937,2.67,2.67,0,0,0,.3.408,1.743,1.743,0,0,0,.457.359,2.7,2.7,0,0,0,.677.256,3.674,3.674,0,0,0,.7.085v.011H79.1v-8.735h-.976Zm-27.119,0h-.988a3.413,3.413,0,0,1-1.03-.151,2.6,2.6,0,0,1-.848-.444,2.059,2.059,0,0,1-.573-.718,2.2,2.2,0,0,1-.207-.974,2.076,2.076,0,0,1,.225-.962,2.374,2.374,0,0,1,.6-.748,2.789,2.789,0,0,1,.847-.481,2.9,2.9,0,0,1,.988-.17H51Zm5.377,0L54.857,198.6a3.873,3.873,0,0,1,1.153-.694,3.518,3.518,0,0,1,1.237-.219,3.453,3.453,0,0,1,1.3.262,3.894,3.894,0,0,1,1.1.651l-1.524,3.736Z" transform="translate(-27.506 -115.387)" fill="#959597"/>
        <rect id="Rectangle_97" data-name="Rectangle 97" width="1.002" height="1" transform="translate(4.554 79.187)" fill="#959597"/>
        <rect id="Rectangle_98" data-name="Rectangle 98" width="1.002" height="1" transform="translate(103.219 79.187)" fill="#959597"/>
        <rect id="Rectangle_99" data-name="Rectangle 99" width="0.976" height="8.735" transform="translate(94.579 79.187)" fill="#959597"/>
        <rect id="Rectangle_100" data-name="Rectangle 100" width="1.002" height="1" transform="translate(63.074 79.187)" fill="#959597"/>
        <path id="Path_632" data-name="Path 632" d="M34.493,202.576a3.634,3.634,0,0,0-.153-1.072,2.238,2.238,0,0,0-.469-.852,2.626,2.626,0,0,0-.872-.639,2.9,2.9,0,0,0-1.176-.212H31.1v.973h.853a1.535,1.535,0,0,1,.671.152,1.573,1.573,0,0,1,.525.4,1.479,1.479,0,0,1,.287.56,2.925,2.925,0,0,1,.079.73v2.823H28.945v.974h5.548Z" transform="translate(-17.165 -118.486)" fill="#959597"/>
        <rect id="Rectangle_101" data-name="Rectangle 101" width="0.976" height="8.735" transform="translate(146.185 79.187)" fill="#959597"/>
        <rect id="Rectangle_102" data-name="Rectangle 102" width="1.002" height="1" transform="translate(104.927 79.187)" fill="#959597"/>
        <path id="Path_633" data-name="Path 633" d="M289.6,194.574h-.975v7.761h-3.353a3.417,3.417,0,0,0,.3-1.436,3.587,3.587,0,0,0-.274-1.405,3.435,3.435,0,0,0-1.878-1.875,3.612,3.612,0,0,0-1.409-.273,3.345,3.345,0,0,0-1.365.28,3.485,3.485,0,0,0-1.841,1.887,3.565,3.565,0,0,0-.269,1.387,3.476,3.476,0,0,0,.079.748,4.169,4.169,0,0,0,.213.687h-3.024a3.416,3.416,0,0,0,.3-1.436,3.587,3.587,0,0,0-.274-1.405,3.436,3.436,0,0,0-1.877-1.875,3.615,3.615,0,0,0-1.409-.273,3.344,3.344,0,0,0-1.365.28,3.49,3.49,0,0,0-1.842,1.887,3.572,3.572,0,0,0-.268,1.387,3.474,3.474,0,0,0,.079.748,4.169,4.169,0,0,0,.213.687h-3.1v-7.761H265.3v7.761h-3.108v-1.49a3.79,3.79,0,0,0-.147-1.065,2.154,2.154,0,0,0-.464-.858,2.445,2.445,0,0,0-.853-.633,3.05,3.05,0,0,0-1.208-.206H255.2l1.836-3.508h-1.061l-1.873,3.5a2.122,2.122,0,0,0,.153.548,1.717,1.717,0,0,0,.287.438h4.975a2.054,2.054,0,0,1,.8.141,1.4,1.4,0,0,1,.542.383,1.3,1.3,0,0,1,.281.561,3.127,3.127,0,0,1,.073.706v1.49h-9.024V196.7h-1.537a5.2,5.2,0,0,0-1.658.249,3.821,3.821,0,0,0-1.268.693,3.086,3.086,0,0,0-.811,1.053,3.049,3.049,0,0,0-.287,1.314,3.121,3.121,0,0,0,.329,1.485,2.978,2.978,0,0,0,.878,1.023,3.782,3.782,0,0,0,1.28.6,5.91,5.91,0,0,0,1.536.195h19.351a3.509,3.509,0,0,0,1.129.81,3.377,3.377,0,0,0,1.42.3,3.644,3.644,0,0,0,1.458-.293,3.436,3.436,0,0,0,1.164-.816h4.292a3.509,3.509,0,0,0,1.129.81,3.375,3.375,0,0,0,1.42.3,3.645,3.645,0,0,0,1.458-.293,3.45,3.45,0,0,0,1.165-.816H289.6Zm-38.385,7.761h-.964a3.289,3.289,0,0,1-1.03-.157,2.553,2.553,0,0,1-.841-.457,2.131,2.131,0,0,1-.567-.73,2.229,2.229,0,0,1-.208-.98,2.04,2.04,0,0,1,.225-.956,2.436,2.436,0,0,1,.6-.742,2.689,2.689,0,0,1,.847-.474,2.971,2.971,0,0,1,.976-.164h.964Zm23.723-.431a2.491,2.491,0,0,1-.549.809,2.463,2.463,0,0,1-.816.529,2.714,2.714,0,0,1-1.019.189,2.447,2.447,0,0,1-.993-.2,2.474,2.474,0,0,1-.793-.548,2.538,2.538,0,0,1-.525-.809,2.59,2.59,0,0,1-.188-.985,2.639,2.639,0,0,1,.188-.992,2.579,2.579,0,0,1,.519-.815,2.443,2.443,0,0,1,.785-.553,2.408,2.408,0,0,1,1.006-.207,2.673,2.673,0,0,1,1.031.194,2.567,2.567,0,0,1,.817.535,2.438,2.438,0,0,1,.543.81,2.654,2.654,0,0,1,.195,1.029,2.547,2.547,0,0,1-.2,1.016m9.462,0a2.457,2.457,0,0,1-1.366,1.339,2.709,2.709,0,0,1-1.018.189,2.458,2.458,0,0,1-1.786-.749,2.536,2.536,0,0,1-.524-.809,2.574,2.574,0,0,1-.189-.985,2.623,2.623,0,0,1,.189-.992,2.563,2.563,0,0,1,.518-.815,2.446,2.446,0,0,1,.786-.553,2.4,2.4,0,0,1,1.006-.207,2.672,2.672,0,0,1,1.03.194,2.581,2.581,0,0,1,.818.535,2.449,2.449,0,0,1,.542.81,2.639,2.639,0,0,1,.2,1.029,2.547,2.547,0,0,1-.2,1.016" transform="translate(-146.257 -115.387)" fill="#959597"/>
        <path id="Path_634" data-name="Path 634" d="M2.488,206.214a5.933,5.933,0,0,0,1.536.195h6.39V199.8H9.439v5.634H5.561V199.8H4.024a5.2,5.2,0,0,0-1.658.249,3.826,3.826,0,0,0-1.268.693A3.1,3.1,0,0,0,.287,201.8,3.049,3.049,0,0,0,0,203.111,3.127,3.127,0,0,0,.33,204.6a2.977,2.977,0,0,0,.878,1.023,3.8,3.8,0,0,0,1.28.6m-1.512-3.1a2.036,2.036,0,0,1,.226-.956,2.428,2.428,0,0,1,.6-.742,2.7,2.7,0,0,1,.848-.475,2.973,2.973,0,0,1,.975-.164h.963v4.661H3.622a3.284,3.284,0,0,1-1.03-.157,2.55,2.55,0,0,1-.842-.457,2.14,2.14,0,0,1-.567-.73,2.237,2.237,0,0,1-.208-.98" transform="translate(0 -118.486)" fill="#959597"/>
        <rect id="Rectangle_103" data-name="Rectangle 103" width="1.002" height="1" transform="translate(70.745 89.077)" fill="#959597"/>
        <rect id="Rectangle_104" data-name="Rectangle 104" width="1.002" height="1" transform="translate(69.036 89.077)" fill="#959597"/>
        <path id="Path_635" data-name="Path 635" d="M190.616,204.544a5.254,5.254,0,0,0,.092-1.029v-.207h12.548v-8.735h-.976v7.761h-4.145l1.706-4.077a8.675,8.675,0,0,0-.829-.639,7.273,7.273,0,0,0-.9-.523,5.38,5.38,0,0,0-.939-.353,3.624,3.624,0,0,0-.938-.127,3.685,3.685,0,0,0-.952.127,5.854,5.854,0,0,0-.944.347,5.983,5.983,0,0,0-.9.524,8.465,8.465,0,0,0-.811.645l1.719,4.077h-3.633V196.7h-.976v6.815a4.857,4.857,0,0,1-.042.7,1.294,1.294,0,0,1-.147.462.607.607,0,0,1-.281.255,1.119,1.119,0,0,1-.457.08,2.1,2.1,0,0,1-.232-.012,1.914,1.914,0,0,1-.267-.061l-.256.938a3,3,0,0,0,.792.109,2.044,2.044,0,0,0,.885-.171,1.424,1.424,0,0,0,.579-.492,2.107,2.107,0,0,0,.311-.779m3.225-5.946a3.864,3.864,0,0,1,1.153-.693,3.511,3.511,0,0,1,1.238-.219,3.437,3.437,0,0,1,1.3.262,3.9,3.9,0,0,1,1.1.651l-1.524,3.736h-1.744Z" transform="translate(-111.518 -115.386)" fill="#959597"/>
        <rect id="Rectangle_105" data-name="Rectangle 105" width="1.002" height="1" transform="translate(2.846 79.187)" fill="#959597"/>
        <path id="Path_636" data-name="Path 636" d="M8.389,231.757h-1.5l-3.314,3.5v-3.5H2.347v6.954H3.572v-2.017l1.085-1.113,2.378,3.13H8.518l-3.025-3.964Z" transform="translate(-1.392 -137.437)" fill="#959597"/>
        <rect id="Rectangle_106" data-name="Rectangle 106" width="1.225" height="6.954" transform="translate(8.243 94.32)" fill="#959597"/>
        <path id="Path_637" data-name="Path 637" d="M32.763,236.566l-3.732-4.808H27.9v6.954h1.2v-4.947l3.842,4.947h1.025v-6.954h-1.2Z" transform="translate(-16.543 -137.437)" fill="#959597"/>
        <path id="Path_638" data-name="Path 638" d="M50.093,235.715h1.782v1.3a2.848,2.848,0,0,1-1.683.526,2.323,2.323,0,0,1-2.368-2.483v-.02a2.353,2.353,0,0,1,2.26-2.453,2.735,2.735,0,0,1,1.951.744l.776-.924a3.769,3.769,0,0,0-2.678-.944,3.547,3.547,0,0,0-3.593,3.6v.02a3.454,3.454,0,0,0,3.613,3.577,4.445,4.445,0,0,0,2.907-1.083v-2.92H50.093Z" transform="translate(-27.599 -137.263)" fill="#959597"/>
        <path id="Path_639" data-name="Path 639" d="M69.313,231.758h-2.6v6.954h2.6a3.485,3.485,0,0,0,3.7-3.478v-.019a3.47,3.47,0,0,0-3.7-3.457m2.418,3.5a2.268,2.268,0,0,1-2.418,2.344H67.939V232.87h1.374a2.284,2.284,0,0,1,2.418,2.364Z" transform="translate(-39.563 -137.437)" fill="#959597"/>
        <path id="Path_640" data-name="Path 640" d="M88.667,231.463a3.567,3.567,0,0,0-3.653,3.6v.02a3.644,3.644,0,0,0,7.286-.02v-.02a3.534,3.534,0,0,0-3.634-3.577m2.349,3.617a2.352,2.352,0,0,1-2.349,2.454A2.385,2.385,0,0,1,86.3,235.06v-.02a2.351,2.351,0,0,1,2.349-2.454,2.384,2.384,0,0,1,2.369,2.473Z" transform="translate(-50.415 -137.263)" fill="#959597"/>
        <path id="Path_641" data-name="Path 641" d="M110.079,235.046l-2.12-3.288h-1.3v6.954h1.2v-4.967l2.18,3.258h.04l2.2-3.278v4.987H113.5v-6.954h-1.3Z" transform="translate(-63.248 -137.437)" fill="#959597"/>
        <path id="Path_642" data-name="Path 642" d="M138.123,231.463a3.567,3.567,0,0,0-3.653,3.6v.02a3.644,3.644,0,0,0,7.286-.02v-.02a3.534,3.534,0,0,0-3.633-3.577m2.349,3.617a2.352,2.352,0,0,1-2.349,2.454,2.385,2.385,0,0,1-2.369-2.474v-.02a2.351,2.351,0,0,1,2.349-2.454,2.384,2.384,0,0,1,2.369,2.473Z" transform="translate(-79.744 -137.263)" fill="#959597"/>
        <path id="Path_643" data-name="Path 643" d="M156.112,238.711h1.225V235.88h3.513v-1.112h-3.513v-1.9H161.3v-1.113h-5.186Z" transform="translate(-92.578 -137.437)" fill="#959597"/>
        <path id="Path_644" data-name="Path 644" d="M181.5,234.533c-1.334-.318-1.652-.556-1.652-1.092v-.02c0-.457.418-.825,1.134-.825a3.167,3.167,0,0,1,1.891.715l.657-.923a3.868,3.868,0,0,0-2.528-.874,2.13,2.13,0,0,0-2.38,2.016v.02c0,1.282.836,1.719,2.32,2.076,1.294.3,1.573.567,1.573,1.064v.019c0,.527-.478.875-1.234.875a3.21,3.21,0,0,1-2.2-.9l-.736.875a4.3,4.3,0,0,0,2.906,1.113c1.463,0,2.489-.775,2.489-2.077v-.02c0-1.152-.767-1.678-2.24-2.037" transform="translate(-105.765 -137.293)" fill="#959597"/>
        <path id="Path_645" data-name="Path 645" d="M196.357,231.635l-3.066,7h1.255l.715-1.679h3.3l.707,1.679h1.294l-3.066-7Zm-.647,4.242L196.9,233.1l1.2,2.782Z" transform="translate(-114.626 -137.365)" fill="#959597"/>
        <path id="Path_646" data-name="Path 646" d="M217.652,235.761c0,1.282-.667,1.937-1.752,1.937s-1.761-.7-1.761-1.987v-3.954h-1.225v4a2.744,2.744,0,0,0,2.966,3.06,2.78,2.78,0,0,0,3-3.119v-3.944h-1.224Z" transform="translate(-126.263 -137.437)" fill="#959597"/>
        <path id="Path_647" data-name="Path 647" d="M234.565,231.758h-2.6v6.954h2.6a3.485,3.485,0,0,0,3.7-3.478v-.019a3.47,3.47,0,0,0-3.7-3.457m2.418,3.5a2.268,2.268,0,0,1-2.418,2.344h-1.374V232.87h1.374a2.284,2.284,0,0,1,2.418,2.364Z" transform="translate(-137.561 -137.437)" fill="#959597"/>
        <rect id="Rectangle_107" data-name="Rectangle 107" width="1.224" height="6.954" transform="translate(102.257 94.32)" fill="#959597"/>
        <path id="Path_648" data-name="Path 648" d="M267.78,231.635l-3.066,7h1.255l.715-1.679h3.3l.707,1.679h1.294l-3.066-7Zm-.647,4.242,1.195-2.782,1.2,2.782Z" transform="translate(-156.981 -137.365)" fill="#959597"/>
        <path id="Path_649" data-name="Path 649" d="M291.1,233.973v-.02a2.1,2.1,0,0,0-.577-1.5,2.812,2.812,0,0,0-2.011-.7h-3.105v6.954h1.225v-2.425h1.532l1.712,2.425h1.444l-1.881-2.632a2.089,2.089,0,0,0,1.663-2.107m-4.469,1.232V232.87h1.781c.906,0,1.444.408,1.444,1.153v.02c0,.706-.558,1.162-1.434,1.162Z" transform="translate(-169.255 -137.437)" fill="#959597"/>
        <path id="Path_650" data-name="Path 650" d="M305.217,231.635l-3.066,7h1.255l.715-1.679h3.3l.707,1.679h1.294l-3.065-7Zm-.647,4.242,1.194-2.782,1.2,2.782Z" transform="translate(-179.182 -137.365)" fill="#959597"/>
        <path id="Path_651" data-name="Path 651" d="M327.267,235.1a1.657,1.657,0,0,0,1-1.55v-.02a1.556,1.556,0,0,0-.468-1.152,2.517,2.517,0,0,0-1.822-.617h-3.126v6.954h3.225c1.553,0,2.578-.665,2.578-1.908v-.02a1.705,1.705,0,0,0-1.383-1.689m-3.215-2.255h1.761c.787,0,1.225.338,1.225.884v.02c0,.636-.528.944-1.314.944h-1.672Zm3.374,3.835c0,.626-.507.954-1.343.954h-2.03v-1.908h1.941c.965,0,1.433.348,1.433.934Z" transform="translate(-191.455 -137.437)" fill="#959597"/>
        <rect id="Rectangle_108" data-name="Rectangle 108" width="1.225" height="6.954" transform="translate(138.711 94.32)" fill="#959597"/>
        <path id="Path_652" data-name="Path 652" d="M350.911,231.635h-1.134l-3.066,7h1.255l.715-1.679h3.3l.707,1.679h1.294Zm-1.781,4.242,1.194-2.782,1.2,2.782Z" transform="translate(-205.607 -137.365)" fill="#959597"/>
      </g>
    </g>
  </g>
</svg>
