<svg xmlns="http://www.w3.org/2000/svg" xmlns:xlink="http://www.w3.org/1999/xlink" width="237.853" height="47.45" viewBox="0 0 237.853 47.45">
  <defs>
    <clipPath id="clip-path">
      <rect id="Rectangle_126" data-name="Rectangle 126" width="237.853" height="47.45" fill="none"/>
    </clipPath>
  </defs>
  <g id="air" transform="translate(0 0)" style="isolation: isolate">
    <g id="Group_1381" data-name="Group 1381" transform="translate(0 0)" clip-path="url(#clip-path)">
      <path id="Path_666" data-name="Path 666" d="M43.448,29.83h0l0-.013a.063.063,0,0,0-.061-.062.06.06,0,0,0-.054.049A22.653,22.653,0,1,1,4.035,7.265H4.028l.007-.018a.07.07,0,0,0-.061-.062.049.049,0,0,0-.043.02h0A22.415,22.415,0,0,0,0,20.055,22.808,22.808,0,0,0,22.848,42.845a22.6,22.6,0,0,0,20.589-13c.008,0,.008-.011.011-.02" transform="translate(0 4.605)" fill="#ba861e" fill-rule="evenodd"/>
      <path id="Path_667" data-name="Path 667" d="M14.422,27.561l.573-.44.578-3.951H15.2l.459-3.961h-.436l.555-3.992h-.532l.461-3.9c1.561,2,2.542,6.035,2.842,9.151,1.3-2.4.858-7.827-.5-10.08,2.4,1.313,5.021,4.913,6.524,8.6.83-3.474-1.833-8.406-4.663-10.53,2.763.512,6.382,2.66,9.844,6.759-1.139-5.484-6.552-8.8-9.773-9.481a19.071,19.071,0,0,1,10.141,2.3A14.62,14.62,0,0,0,18.181,3.069,4.2,4.2,0,0,1,20.169,1.88a4.429,4.429,0,0,0-4.539.665A3.964,3.964,0,0,0,14.422,0Z" transform="translate(9.243 0)" fill="#ba861e" fill-rule="evenodd"/>
      <path id="Path_668" data-name="Path 668" d="M20.548,27.561l-.581-.44-.576-3.951h.377l-.458-3.961h.433l-.555-3.992h.535l-.461-3.9c-1.549,2-2.529,6.035-2.834,9.151-1.314-2.4-.861-7.827.5-10.08C14.519,11.7,11.9,15.3,10.4,18.987c-.827-3.474,1.826-8.406,4.667-10.53-2.773.512-6.378,2.66-9.846,6.759,1.144-5.484,6.551-8.8,9.772-9.481a19.044,19.044,0,0,0-10.134,2.3A14.622,14.622,0,0,1,16.8,3.069a4.31,4.31,0,0,0-2-1.188,4.413,4.413,0,0,1,4.532.665A3.969,3.969,0,0,1,20.551,0Z" transform="translate(3.114 0)" fill="#ba861e" fill-rule="evenodd"/>
      <path id="Path_669" data-name="Path 669" d="M15.943,16.531l-.566.433-.578-.433-1.866.955v.141h4.892v-.141Z" transform="translate(8.289 10.595)" fill="#ba861e" fill-rule="evenodd"/>
      <path id="Path_670" data-name="Path 670" d="M10.166,26.405c2.3-1.5,5.057-3.549,8.049-5.344,6.117-3.672,14.5-7.871,18.775-3.431-7.366-2.936-20.2,6.766-25.657,9.974-.174-.177-.843-.865-1.167-1.2" transform="translate(6.516 10.074)" fill="#ba861e" fill-rule="evenodd"/>
      <path id="Path_671" data-name="Path 671" d="M16.023,25.715a.594.594,0,0,0-.574-.615.587.587,0,0,0-.606.583v.062A29.455,29.455,0,0,1,12.5,23.306c-2.714-2.836-3.679-2.422-3.9-2.328a.6.6,0,0,0,.189,1.168.593.593,0,0,0,.607-.592.487.487,0,0,0-.01-.125,14.62,14.62,0,0,1,2.681,2.43c2.407,2.493,2.908,2.465,3.379,2.442a.6.6,0,0,0,.581-.586" transform="translate(5.261 13.396)" fill="#ba861e" fill-rule="evenodd"/>
      <path id="Path_672" data-name="Path 672" d="M6.451,24.221c.1-.1.281-.048.486.039,1.1.45,2.885-.4,5.148-1.833L13.2,23.622C8.963,26,7.312,25.525,6.566,24.683c-.177-.192-.212-.356-.115-.463" transform="translate(4.1 14.374)" fill="#ba861e" fill-rule="evenodd"/>
      <path id="Path_673" data-name="Path 673" d="M29.15,26.405c-2.305-1.5-5.064-3.549-8.052-5.344-6.114-3.672-14.493-7.871-18.77-3.431C9.692,14.688,22.52,24.4,27.984,27.6c.169-.177.842-.865,1.167-1.2" transform="translate(1.492 10.074)" fill="#ba861e" fill-rule="evenodd"/>
      <path id="Path_674" data-name="Path 674" d="M15.871,25.715a.593.593,0,1,1,1.186-.033.407.407,0,0,1,0,.062A31.594,31.594,0,0,0,19.4,23.306c2.7-2.839,3.671-2.422,3.894-2.328a.6.6,0,1,1-.8.573.556.556,0,0,1,.013-.128,15.256,15.256,0,0,0-2.683,2.437c-2.4,2.493-2.895,2.461-3.372,2.438a.59.59,0,0,1-.579-.583" transform="translate(10.172 13.396)" fill="#ba861e" fill-rule="evenodd"/>
      <path id="Path_675" data-name="Path 675" d="M25.043,24.221c-.1-.1-.279-.048-.481.039-1.106.45-2.9-.4-5.148-1.833L18.3,23.622c4.237,2.376,5.891,1.9,6.634,1.053.176-.185.212-.348.112-.455" transform="translate(11.727 14.374)" fill="#ba861e" fill-rule="evenodd"/>
      <path id="Path_676" data-name="Path 676" d="M84.064,26.693H82.259A5.283,5.283,0,0,0,77.185,23.7l-1.462,2.991H74.6l4.458-8.676h.571Zm-6.532-3.71a5.671,5.671,0,0,1,3.423.971L79.006,19.97Z" transform="translate(47.814 11.547)" fill="#192966" fill-rule="evenodd"/>
      <path id="Path_677" data-name="Path 677" d="M72.931,27.389h-1.9A6.3,6.3,0,0,0,64.9,23.884l-1.641,3.505H62.021l5.125-10.458h.632ZM65.3,23.03a6.313,6.313,0,0,1,4.216,1.154l-2.407-4.99Z" transform="translate(39.75 10.851)" fill="#192966" fill-rule="evenodd"/>
      <path id="Path_678" data-name="Path 678" d="M115.708,27.389h-1.892a6.3,6.3,0,0,0-6.135-3.505l-1.649,3.505H104.8l5.128-10.458h.635Zm-7.616-4.358a6.307,6.307,0,0,1,4.207,1.154l-2.411-4.99Z" transform="translate(67.169 10.851)" fill="#192966" fill-rule="evenodd"/>
      <path id="Path_679" data-name="Path 679" d="M86.251,22c.519-.105,2.058-.533,2.051-1.884,0-.761-.3-2.118-3.722-2.118a16.03,16.03,0,0,0-3.9.614l.138.6c.254-.071.733-.162,1.15-.241v7.745c1.872.021,3.016,0,4.106-.075,1.818-.118,2.76-1.045,2.76-2.432,0-1.145-.937-2.02-2.586-2.2m.5-1.813c-.018.975-.939,1.657-2.668,1.657h-.514V18.716c1.506-.222,3.208-.059,3.182,1.467m-1.739,5.806a1.975,1.975,0,0,1-1.19-.241,1,1,0,0,1-.253-.8V22.479h.77c1.241,0,2.922.208,2.922,1.938,0,.684-.327,1.572-2.25,1.572" transform="translate(51.711 11.533)" fill="#192966" fill-rule="evenodd"/>
      <path id="Path_680" data-name="Path 680" d="M122.742,18.1h-1.585v8.536h6.08V25.284a11.078,11.078,0,0,1-3.707.542h-.788Z" transform="translate(77.652 11.602)" fill="#192966" fill-rule="evenodd"/>
      <path id="Path_681" data-name="Path 681" d="M136.649,18.1h-1.1v6.03l-5.318-6.03h-1.439v8.536h1.1V20.123l5.728,6.514h1.034Z" transform="translate(82.542 11.602)" fill="#192966" fill-rule="evenodd"/>
      <path id="Path_682" data-name="Path 682" d="M103.878,18.1h-1.1v6.03L97.448,18.1H96.006v8.536h1.106V20.123l5.733,6.514h1.032Z" transform="translate(61.532 11.602)" fill="#192966" fill-rule="evenodd"/>
      <path id="Path_683" data-name="Path 683" d="M141.748,18.1h-6.119v8.536h6.362V25.273a10.094,10.094,0,0,1-3.7.555h-1.1V22.485h4.035v-.793h-4.035V18.875h.766a9.229,9.229,0,0,1,3.789.579Z" transform="translate(86.927 11.602)" fill="#192966" fill-rule="evenodd"/>
      <path id="Path_684" data-name="Path 684" d="M147.094,18.561a6.41,6.41,0,0,0-2.757-.566c-2.064.048-3.441.894-3.457,2.415a2.043,2.043,0,0,0,.245,1.014c1,1.71,5.141,1.431,5.141,3.261,0,.53-.5,1.392-1.926,1.392a5.41,5.41,0,0,1-3.287-1.16l-.405,1.241a8.372,8.372,0,0,0,3.625.719,4.08,4.08,0,0,0,2.468-.765,2.373,2.373,0,0,0,.97-1.972c0-3.034-5.3-2.271-5.3-4.179a1.02,1.02,0,0,1,.241-.62,2.176,2.176,0,0,1,1.711-.6,3.645,3.645,0,0,1,2.291.865Z" transform="translate(90.143 11.532)" fill="#192966" fill-rule="evenodd"/>
      <rect id="Rectangle_118" data-name="Rectangle 118" width="1.6" height="8.536" transform="translate(184.543 29.704)" fill="#192966"/>
      <rect id="Rectangle_119" data-name="Rectangle 119" width="1.593" height="8.536" transform="translate(142.991 29.704)" fill="#192966"/>
      <rect id="Rectangle_120" data-name="Rectangle 120" width="1.602" height="8.536" transform="translate(206.477 29.704)" fill="#192966"/>
      <path id="Path_685" data-name="Path 685" d="M74.707,22.488a2.336,2.336,0,0,0,1.9-2.214c0-1.429-1.342-2.271-3.672-2.281a16.434,16.434,0,0,0-4,.592l.13.643c.33-.089.768-.189,1.147-.267v7.745H71.8v-8c1.856-.2,3.129.207,3.129,1.828,0,.476-.289,1.662-2.148,1.807,0,0,2.276,3.594,2.545,4,.236.345.7.364,1.191.364h1.065c-.868-1.218-2.878-4.219-2.878-4.219" transform="translate(44.179 11.533)" fill="#192966" fill-rule="evenodd"/>
      <path id="Path_686" data-name="Path 686" d="M120.5,22.488a2.334,2.334,0,0,0,1.908-2.214c0-1.429-1.347-2.271-3.674-2.281a16.474,16.474,0,0,0-4.01.592l.131.643c.325-.089.775-.189,1.145-.267v7.745h1.6v-8c1.856-.2,3.133.207,3.133,1.828,0,.476-.3,1.662-2.156,1.807,0,0,2.279,3.594,2.552,4,.238.345.689.364,1.186.364h1.063c-.863-1.218-2.881-4.219-2.881-4.219" transform="translate(73.53 11.533)" fill="#192966" fill-rule="evenodd"/>
      <path id="Path_687" data-name="Path 687" d="M98.709,26.693h-1.8A5.293,5.293,0,0,0,91.829,23.7L90.37,26.693H89.246L93.7,18.017h.566Zm-6.531-3.71a5.65,5.65,0,0,1,3.413.971L93.65,19.97Z" transform="translate(57.2 11.547)" fill="#192966" fill-rule="evenodd"/>
      <path id="Path_688" data-name="Path 688" d="M47.843,26.817a4.636,4.636,0,0,1-3.249-.95,2.96,2.96,0,0,1-.875-2.465V18.1h1.588v5.523a2.231,2.231,0,0,0,.512,1.7,3.265,3.265,0,0,0,4.033,0,2.231,2.231,0,0,0,.509-1.7V18.1h1.6v5.3a2.966,2.966,0,0,1-.878,2.465,4.646,4.646,0,0,1-3.241.95" transform="translate(28.02 11.602)" fill="#192966" fill-rule="evenodd"/>
      <path id="Path_689" data-name="Path 689" d="M39.386,17.643a7,7,0,0,0-3.192-.683c-2.256,0-3.933,1.05-3.933,2.737,0,3.472,6.109,2.453,6.247,5.043.043.9-.5,1.931-2.314,1.931a6.219,6.219,0,0,1-3.753-1.37l-.481,1.451a10.539,10.539,0,0,0,3.713.832,5.43,5.43,0,0,0,3.282-.845,2.86,2.86,0,0,0,1.163-2.269c0-3.034-3.9-3.059-5.543-4.045a1.2,1.2,0,0,1-.715-1.2c.044-1.09,1.009-1.451,2.276-1.451a5.157,5.157,0,0,1,2.811.958Z" transform="translate(20.484 10.87)" fill="#192966" fill-rule="evenodd"/>
      <path id="Path_690" data-name="Path 690" d="M53.983,17.995a18.642,18.642,0,0,0-4.122.514l.131.627a10.2,10.2,0,0,1,1.15-.244v7.817a31.083,31.083,0,0,0,4.4-.1,4.343,4.343,0,0,0,4.022-4.2c0-3.364-3.009-4.472-5.582-4.419m.307,7.973a2.462,2.462,0,0,1-1.3-.276c-.243-.208-.249-.55-.249-1.058V18.712c2.448-.218,5.157.5,5.157,3.728,0,2.576-1.677,3.528-3.6,3.528" transform="translate(31.957 11.532)" fill="#192966" fill-rule="evenodd"/>
      <rect id="Rectangle_121" data-name="Rectangle 121" width="1.6" height="8.536" transform="translate(93.721 29.704)" fill="#192966"/>
      <path id="Path_691" data-name="Path 691" d="M46.783,26.693H44.972A5.283,5.283,0,0,0,39.9,23.7l-1.457,2.991H37.312l4.458-8.676h.571Zm-6.539-3.71a5.637,5.637,0,0,1,3.42.971L41.716,19.97Z" transform="translate(23.914 11.547)" fill="#192966" fill-rule="evenodd"/>
      <path id="Path_692" data-name="Path 692" d="M124.891,9.515c1.907,0,3.367.779,3.367,3.246,0,2.644-1.46,3.333-3.367,3.333h-5.41V14.761h1.587V5.6h1.557V9.515Zm.172,5.246c1.19,0,2.342-.432,2.342-1.961,0-1.469-1.088-1.953-2.342-1.953h-2.438v3.914Z" transform="translate(76.578 3.588)" fill="#192966" fill-rule="evenodd"/>
      <rect id="Rectangle_122" data-name="Rectangle 122" width="1.547" height="10.495" transform="translate(106.253 9.186)" fill="#192966"/>
      <path id="Path_693" data-name="Path 693" d="M41.183,7.962V9.3h1.874c1.449,0,2.932.077,2.932,1.918,0,1.631-1.1,2-3.049,2H39.181v1.334h4.038c2.437,0,3.63-.816,3.63-3.333s-1.413-3.257-3.43-3.257Z" transform="translate(25.112 5.103)" fill="#192966" fill-rule="evenodd"/>
      <rect id="Rectangle_123" data-name="Rectangle 123" width="1.564" height="10.495" transform="translate(148.126 9.186)" fill="#192966"/>
      <path id="Path_694" data-name="Path 694" d="M91.265,14.761H87.66c-2.061,0-2.52-1.1-2.52-2.1,0-1.332,1.055-1.816,2.235-1.816h2.553V9.515l-2.271,0c-1.841,0-3.359.807-3.359,2.906a2.585,2.585,0,0,0,1.04,2.338H81.4V10.294H79.842V17.7c0,.484.087,1.836-.756,1.982V20.4a2.727,2.727,0,0,0,1.936-1.286,4.807,4.807,0,0,0,.374-2.435c0-.177,0-.587,0-.587h8.534a2.488,2.488,0,0,0,2.524,1.529,2.75,2.75,0,0,0,2.291-1.039,3.163,3.163,0,0,0,.451-1.833V5.6H93.646v9.168a2.34,2.34,0,0,1-.1.852,1.056,1.056,0,0,1-1.088.714,1.015,1.015,0,0,1-1.072-.7,3.711,3.711,0,0,1-.121-.871" transform="translate(50.688 3.588)" fill="#192966" fill-rule="evenodd"/>
      <rect id="Rectangle_124" data-name="Rectangle 124" width="1.551" height="10.495" transform="translate(236.258 9.186)" fill="#192966"/>
      <rect id="Rectangle_125" data-name="Rectangle 125" width="1.567" height="10.495" transform="translate(188.844 9.184)" fill="#192966"/>
      <path id="Path_695" data-name="Path 695" d="M119.481,5.6v9.183A2.2,2.2,0,0,1,119.3,15.8a1.2,1.2,0,0,1-2.015,0,2.137,2.137,0,0,1-.184-1.016v-2c0-2.693-1.451-3.264-3.712-3.264h-1.945v1.332h1.913c1.73,0,2.878.343,2.878,1.9,0,1.743-1.286,2.013-2.982,2.013h-4.987V8.253c-2.839.2-6.047,2.881-6.047,7.84h4.57V17.7c0,.376.118,1.808-.763,1.986v.72a2.45,2.45,0,0,0,1.862-1.239c.343-.706.377-1.224.377-3.077h7.465a2.554,2.554,0,0,0,.258.5,3.039,3.039,0,0,0,4.593,0,3.27,3.27,0,0,0,.453-1.958V5.6Zm-12.693,9.163h-3.195V14.5a5.389,5.389,0,0,1,3.195-5.116Z" transform="translate(65.514 3.588)" fill="#192966" fill-rule="evenodd"/>
      <path id="Path_696" data-name="Path 696" d="M40.448,7.9v5.829a2.233,2.233,0,0,1-.177,1.024,1.034,1.034,0,0,1-1,.546,1.055,1.055,0,0,1-1.009-.546,2.187,2.187,0,0,1-.181-1.024V7.209c-3.713.389-6.117,3.6-6.117,7.852H36.7a2.8,2.8,0,0,0,.254.484,2.608,2.608,0,0,0,2.3,1.045,2.588,2.588,0,0,0,2.292-1.045A3.26,3.26,0,0,0,42,13.587V7.9Zm-3.933,5.829H33.336V13.5a5.545,5.545,0,0,1,3.178-5.169Z" transform="translate(20.484 4.62)" fill="#192966" fill-rule="evenodd"/>
      <path id="Path_697" data-name="Path 697" d="M82.079,7.9v5.829a2.164,2.164,0,0,1-.176,1.016,1.212,1.212,0,0,1-2.022,0,2.116,2.116,0,0,1-.187-1.017V7.9H78.137v5.829a2.262,2.262,0,0,1-.171,1.024,1.22,1.22,0,0,1-2.035,0,2.231,2.231,0,0,1-.179-1.024l.01-6.519c-3.705.389-6.134,3.6-6.134,7.852h4.785a2.841,2.841,0,0,0,.243.484,2.6,2.6,0,0,0,2.294,1.045,2.834,2.834,0,0,0,1.969-.656,2.891,2.891,0,0,0,1.971.653,2.6,2.6,0,0,0,2.291-1.042,3.3,3.3,0,0,0,.453-1.967V7.9Zm-7.873,5.829H71.011V13.5a5.549,5.549,0,0,1,3.195-5.169Z" transform="translate(44.627 4.62)" fill="#192966" fill-rule="evenodd"/>
      <path id="Path_698" data-name="Path 698" d="M151.854,5.6v9.183a2.2,2.2,0,0,1-.18,1.016,1.21,1.21,0,0,1-2.03,0,2.221,2.221,0,0,1-.177-1.016v-2c0-2.693-1.439-3.264-3.7-3.264h-1.941v1.332h1.913c1.721,0,2.881.343,2.881,1.9,0,1.743-1.295,2.013-2.988,2.013h-5.446a2.418,2.418,0,0,0,1.047-2.35c0-1.262-.686-2.9-3.554-2.9h-1.771V5.6h-1.582v9.163h-2.6V8.248c-2.955.235-6.052,2.952-6.052,7.845h4.573V17.7c0,.9-.053,1.836-.76,1.982V20.4a2.417,2.417,0,0,0,1.856-1.241c.343-.7.382-1.216.382-3.069h16.385a1.984,1.984,0,0,0,.254.5,3.035,3.035,0,0,0,4.59,0,3.315,3.315,0,0,0,.45-1.958V5.6Zm-21.6,9.163h-3.19V14.5a5.514,5.514,0,0,1,3.19-5.121Zm7.721,0h-2.064V10.839H138c1.738,0,2.369.876,2.369,1.807,0,1.139-.619,2.115-2.4,2.115" transform="translate(80.548 3.588)" fill="#192966" fill-rule="evenodd"/>
      <path id="Path_699" data-name="Path 699" d="M103.424,7.9v5.83a2.156,2.156,0,0,1-.176,1.016,1.205,1.205,0,0,1-2.012,0,2.148,2.148,0,0,1-.184-1.016V7.2c-3.7.387-6.127,3.605-6.127,7.857H99.7a2.468,2.468,0,0,0,.248.486,3.049,3.049,0,0,0,4.585,0,3.228,3.228,0,0,0,.456-1.964V7.9Zm-3.919,5.83H96.3v-.231a5.562,5.562,0,0,1,3.208-5.169Z" transform="translate(60.84 4.613)" fill="#192966" fill-rule="evenodd"/>
      <path id="Path_700" data-name="Path 700" d="M38.4,14.481l-.909-1.035-.906,1.035.906,1.037Z" transform="translate(23.447 8.617)" fill="#192966" fill-rule="evenodd"/>
      <path id="Path_701" data-name="Path 701" d="M36.959,14.481l-.909-1.035-.921,1.035.921,1.037Z" transform="translate(22.515 8.617)" fill="#192966" fill-rule="evenodd"/>
      <path id="Path_702" data-name="Path 702" d="M36.417,6.536,35.5,5.5l-.912,1.039L35.5,7.569Z" transform="translate(22.166 3.523)" fill="#192966" fill-rule="evenodd"/>
      <path id="Path_703" data-name="Path 703" d="M34.955,6.536,34.048,5.5l-.912,1.039.912,1.034Z" transform="translate(21.237 3.523)" fill="#192966" fill-rule="evenodd"/>
      <path id="Path_704" data-name="Path 704" d="M74.083,6.527l-.911-1.044-.907,1.044.907,1.026Z" transform="translate(46.316 3.514)" fill="#192966" fill-rule="evenodd"/>
      <path id="Path_705" data-name="Path 705" d="M72.638,6.527l-.914-1.044-.907,1.044.907,1.026Z" transform="translate(45.388 3.514)" fill="#192966" fill-rule="evenodd"/>
      <path id="Path_706" data-name="Path 706" d="M76.081,14.49l-.914-1.035-.912,1.035.912,1.039Z" transform="translate(47.591 8.623)" fill="#192966" fill-rule="evenodd"/>
      <path id="Path_707" data-name="Path 707" d="M74.635,14.49l-.916-1.035L72.81,14.49l.909,1.039Z" transform="translate(46.665 8.623)" fill="#192966" fill-rule="evenodd"/>
      <path id="Path_708" data-name="Path 708" d="M78.48,14.49l-.914-1.035-.909,1.035.909,1.039Z" transform="translate(49.131 8.623)" fill="#192966" fill-rule="evenodd"/>
      <path id="Path_709" data-name="Path 709" d="M99.38,6.527l-.914-1.044-.9,1.044.9,1.026Z" transform="translate(62.53 3.514)" fill="#192966" fill-rule="evenodd"/>
      <path id="Path_710" data-name="Path 710" d="M139.507,6.633l-.9-1.044-.909,1.044.909,1.029Z" transform="translate(88.251 3.582)" fill="#192966" fill-rule="evenodd"/>
      <path id="Path_711" data-name="Path 711" d="M97.926,6.527l-.916-1.044-.9,1.044.9,1.026Z" transform="translate(61.599 3.514)" fill="#192966" fill-rule="evenodd"/>
      <path id="Path_712" data-name="Path 712" d="M110.7,14.49l-.906-1.035-.916,1.035.916,1.039Z" transform="translate(69.78 8.623)" fill="#192966" fill-rule="evenodd"/>
      <path id="Path_713" data-name="Path 713" d="M101.368,14.481l-.907-1.035-.909,1.035.909,1.037Z" transform="translate(63.804 8.617)" fill="#192966" fill-rule="evenodd"/>
      <path id="Path_714" data-name="Path 714" d="M99.92,14.481l-.914-1.035L98.1,14.481l.906,1.037Z" transform="translate(62.874 8.617)" fill="#192966" fill-rule="evenodd"/>
      <path id="Path_715" data-name="Path 715" d="M73.807,5.6v9.183a2.24,2.24,0,0,1-.169,1.016,1.205,1.205,0,0,1-2.025,0,2.212,2.212,0,0,1-.174-1.016V9.507H69.872v5.254H67.908V9.515H66.353v5.246H64.389V9.507H62.831v5.254H56.816c-1.734-.131-2.141-1.149-2.141-2.087,0-1.328,1.072-1.839,2.243-1.839h2.555V9.507H57.2c-1.844,0-3.385.834-3.385,2.936a2.54,2.54,0,0,0,1.045,2.319H50.918V8.248c-3.416.469-6.127,3.259-6.127,7.845h4.577V17.7c0,.624.061,1.813-.763,1.982V20.4a2.74,2.74,0,0,0,1.92-1.257,4.488,4.488,0,0,0,.394-2.389v-.663h19.15a2.852,2.852,0,0,0,.249.5,3.05,3.05,0,0,0,4.6,0,3.287,3.287,0,0,0,.443-1.958V5.6Zm-24.44,9.163h-3.2v-.248a5.49,5.49,0,0,1,3.2-5.138Z" transform="translate(28.707 3.588)" fill="#192966" fill-rule="evenodd"/>
    </g>
  </g>
</svg>
