<svg xmlns="http://www.w3.org/2000/svg" width="221.594" height="58.804" viewBox="0 0 221.594 58.804">
  <g id="dubi" transform="translate(-10.502 -54.799)" opacity="0.81" style="isolation: isolate">
    <path id="Path_252" data-name="Path 252" d="M55.593,63.6V60.967H58.22l2.939-2.942H52.34V66.85" transform="translate(34.32 2.646)" fill="#f16333"/>
    <path id="Path_253" data-name="Path 253" d="M13.755,81.228V78.6h2.628l2.939-2.942H10.5v8.826" transform="translate(0 17.109)" fill="#f16333"/>
    <g id="Group_97" data-name="Group 97" transform="translate(10.502 54.799)" style="isolation: isolate">
      <path id="Path_254" data-name="Path 254" d="M53.41,77.536V96.757h3.254V75.036" transform="translate(24.695 -38.198)" fill="#414141"/>
      <path id="Path_255" data-name="Path 255" d="M108.506,75.665l-5.268,17.117L97.971,75.665H93.16V96.251h3.253v-16.7l5.036,16.7h3.58l5.035-16.527V96.251h3.253V75.665" transform="translate(57.302 -37.682)" fill="#414141"/>
      <path id="Path_256" data-name="Path 256" d="M83.615,77.536v7.086H75.136V76.181H71.884V96.766h3.253v-9.2h8.479v9.2H86.87V75.036" transform="translate(39.85 -38.198)" fill="#414141"/>
      <path id="Path_257" data-name="Path 257" d="M118.939,87.049h8.153V84.113h-8.153v-5.5h7.437l2.191-2.944H115.685V96.251h12.31V93.327h-9.055" transform="translate(75.78 -37.682)" fill="#414141"/>
      <path id="Path_258" data-name="Path 258" d="M47.837,88.18l3.14-9.577,3.135,9.577Zm8.919,8.071h3.439L52.781,75.665h-3.61L41.755,96.251H45.2l1.682-5.133h8.2" transform="translate(15.135 -37.682)" fill="#414141"/>
      <path id="Path_259" data-name="Path 259" d="M87.658,88.18,90.8,78.6l3.138,9.577Zm8.92,8.071h3.439L92.6,75.665H88.99L81.576,96.251h3.437l1.682-5.133h8.2" transform="translate(47.8 -37.682)" fill="#414141"/>
      <path id="Path_260" data-name="Path 260" d="M35.522,77.537V88.2c0,3.517-1.565,5.845-5.237,5.854-3.672-.009-5.217-2.337-5.217-5.854V76.186H21.815V88.313C21.8,93.1,23.836,96.974,30.256,97v0l.029,0,.029,0v0c6.42-.025,8.461-3.9,8.461-8.686V75.036" transform="translate(-1.222 -38.198)" fill="#414141"/>
      <path id="Path_261" data-name="Path 261" d="M64.927,85.953c0-1.724.53-7.341,7.332-7.341h2.987l2.193-2.947h-5.8c-6.242,0-9.953,4.039-9.953,10.288S65.4,96.242,71.638,96.242H76.71V93.295H72.259c-6.8,0-7.332-5.617-7.332-7.341" transform="translate(31.484 -37.682)" fill="#414141"/>
      <path id="Path_262" data-name="Path 262" d="M41.57,93.315H36.011V87.049H41.57a3.15,3.15,0,0,1,0,6.265M41.057,78.6a2.482,2.482,0,0,1,2.423,2.738,2.511,2.511,0,0,1-2.423,2.772H36.011V78.6Zm6.588,11.573a6.064,6.064,0,0,0-2.488-4.9,5.707,5.707,0,0,0,1.576-3.936,5.554,5.554,0,0,0-5.676-5.676h-8.3V96.253h8.881v0a6.081,6.081,0,0,0,6.005-6.073" transform="translate(7.755 -37.682)" fill="#414141"/>
      <path id="Path_263" data-name="Path 263" d="M114.842,93.315h-5.559V87.049h5.559a3.149,3.149,0,0,1,0,6.265M114.331,78.6a2.483,2.483,0,0,1,2.423,2.738,2.512,2.512,0,0,1-2.423,2.772h-5.048V78.6Zm6.588,11.573a6.069,6.069,0,0,0-2.488-4.9A5.713,5.713,0,0,0,120,81.341a5.552,5.552,0,0,0-5.674-5.676h-8.3V96.253h8.883v0a6.081,6.081,0,0,0,6.005-6.073" transform="translate(67.86 -37.682)" fill="#414141"/>
      <path id="Path_264" data-name="Path 264" d="M127.3,78.6h5.046a2.483,2.483,0,0,1,2.425,2.738,2.511,2.511,0,0,1-2.425,2.771H127.3Zm11.65,17.648-4.786-9.509a5.425,5.425,0,0,0,3.857-5.4,5.682,5.682,0,0,0-5.676-5.676l-.045,0v0H124.05V96.251H127.3v-9.2h3.71l4.378,9.2" transform="translate(82.642 -37.682)" fill="#414141"/>
      <path id="Path_265" data-name="Path 265" d="M63.521,58.344,60.98,60.885c4.96.967,5.736,5.625,5.736,7.163,0,1.726-.876,7.363-7.676,7.374h-6.7v2.925h7.35c6.244-.009,10.276-4.047,10.276-10.3,0-4.853-2.434-8.372-6.446-9.7" transform="translate(23.819 -51.89)" fill="#414141"/>
      <path id="Path_266" data-name="Path 266" d="M21.684,75.975l-2.539,2.539c4.959.965,5.732,5.625,5.732,7.165,0,1.724-.876,7.361-7.676,7.374H10.5v2.923h7.352c6.242-.007,10.274-4.045,10.274-10.3,0-4.853-2.432-8.372-6.444-9.7" transform="translate(-10.502 -37.428)" fill="#414141"/>
      <path id="Path_267" data-name="Path 267" d="M140.039,68.354c0-1.72.528-7.361,7.329-7.361h3l2.2-2.947h-5.818c-6.24,0-10.272,4.061-10.272,10.308a10.525,10.525,0,0,0,2.636,7.356H116.176V57.995l-3.251,2.4V75.727c0,3.153-1.828,5.869-6.225,5.869v2.922c4.281,0,7.993-1.977,9.223-5.88h37.262V75.71h-6.5c-6.156-.364-6.65-5.69-6.65-7.356" transform="translate(68.409 -52.177)" fill="#414141"/>
      <path id="Path_268" data-name="Path 268" d="M132.282,69.115h-4.605a4.09,4.09,0,0,1,0-8.153h4.605ZM72.356,66.263a5.04,5.04,0,0,1,4.986-5.3h3.136v9.582a5.265,5.265,0,0,1-3.136,1.036,5.049,5.049,0,0,1-4.986-5.315m55.321-8.239a7.008,7.008,0,0,0,0,14.016h4.6c0,2.4-2.29,3.632-4.1,3.644H87.818a3.976,3.976,0,0,1-4.087-3.859v-13.8H77.342a8.24,8.24,0,0,0,0,16.479,8.163,8.163,0,0,0,3.424-.752,6.8,6.8,0,0,0,6.56,4.858h41.257c3.267,0,6.952-1.7,6.952-7.165V58.024" transform="translate(37.569 -52.153)" fill="#414141"/>
      <path id="Path_269" data-name="Path 269" d="M77.43,60.571V70.8c0,3.948-3.377,4.911-5.381,4.911H51.227V58.048H46.61A7.015,7.015,0,0,0,39.6,65.054c0,.042,0,.084,0,2.308h.005V75.71H20.7c-2.967,0-6.824-.617-6.824-5.925v-8.79l-3.253,2.5v6.724c0,7.552,5.568,8.413,9.626,8.413h22.6l.007-11.27V65.054a3.808,3.808,0,0,1,3.755-4.068h1.345v0h.027V78.637H71.9c2.41,0,8.765-.606,8.765-8.222V57.995" transform="translate(-10.403 -52.177)" fill="#414141"/>
      <rect id="Rectangle_40" data-name="Rectangle 40" width="3.53" height="3.528" transform="translate(65.939 28.818)" fill="#414141"/>
      <rect id="Rectangle_41" data-name="Rectangle 41" width="3.528" height="3.528" transform="translate(17.965 28.818)" fill="#414141"/>
      <rect id="Rectangle_42" data-name="Rectangle 42" width="3.53" height="3.528" transform="translate(12.655 28.818)" fill="#414141"/>
      <rect id="Rectangle_43" data-name="Rectangle 43" width="3.528" height="3.53" transform="translate(169.044)" fill="#414141"/>
      <rect id="Rectangle_44" data-name="Rectangle 44" width="3.53" height="3.53" transform="translate(215.146)" fill="#414141"/>
      <rect id="Rectangle_45" data-name="Rectangle 45" width="3.53" height="3.53" transform="translate(117.772)" fill="#414141"/>
      <rect id="Rectangle_46" data-name="Rectangle 46" width="3.53" height="3.53" transform="translate(112.462)" fill="#414141"/>
    </g>
  </g>
</svg>
