<svg xmlns="http://www.w3.org/2000/svg" width="250.67" height="66.999" viewBox="0 0 250.67 66.999">
  <g id="health" transform="translate(-96.456 -367.597)" opacity="0.8" style="isolation: isolate">
    <path id="Path_183" data-name="Path 183" d="M406.527,367.6l-.01.031-.01-.031q-.537,1.629-.966,3.376a12.583,12.583,0,0,0-4.278-.749c-5.692,0-10.611,3.825-12.935,9.37a13.443,13.443,0,0,1,9.526-4.651,14.628,14.628,0,0,0-7.35,12.736,14.9,14.9,0,0,0,.242,2.678,14.54,14.54,0,0,1,9.474-10.7,13.883,13.883,0,0,0-1.207,19.11,13.824,13.824,0,0,1-.567-3.929,13.969,13.969,0,0,1,5.613-11.168,51.738,51.738,0,0,0,2.448,16.057l.01-.032.01.032a51.722,51.722,0,0,0,2.447-16.057,13.968,13.968,0,0,1,5.613,11.168,13.826,13.826,0,0,1-.567,3.929,13.883,13.883,0,0,0-1.207-19.11,14.54,14.54,0,0,1,9.474,10.7,14.9,14.9,0,0,0,.242-2.678,14.628,14.628,0,0,0-7.35-12.736,13.443,13.443,0,0,1,9.526,4.651c-2.324-5.544-7.243-9.37-12.935-9.37a12.583,12.583,0,0,0-4.278.749q-.427-1.744-.966-3.376Z" transform="translate(-111.12)" fill="#00973d" fill-rule="evenodd"/>
    <path id="Path_184" data-name="Path 184" d="M402.665,453.938c-1.413-1.146-5.973-4.825-11.565-9.179,3.766-3.395,7.574-6.744,11.512-9.9,1.335-1.07,2.7-2.1,4.082-3.077a40.656,40.656,0,0,1,8.283-4.736,22.745,22.745,0,0,1,6.106-1.538,14.684,14.684,0,0,1,7.875,1.338c7.182,3.482,7.715,11.947,7.715,11.947l.738.092a15.75,15.75,0,0,0-.95-6.185,16.292,16.292,0,0,0-7.715-9.02c-6.032-3.177-12.733-1.708-17.115-.033a55.333,55.333,0,0,0-9.433,4.92c-4.6,2.913-10.8,7.451-16.657,11.91-5.857-4.459-12.054-9-16.657-11.91a55.332,55.332,0,0,0-9.433-4.92c-4.382-1.675-11.083-3.144-17.115.033a16.29,16.29,0,0,0-7.716,9.02,15.762,15.762,0,0,0-.95,6.185l.739-.092s.533-8.465,7.714-11.947A14.684,14.684,0,0,1,350,425.509a22.744,22.744,0,0,1,6.105,1.538,40.638,40.638,0,0,1,8.284,4.736c1.385.974,2.747,2.007,4.082,3.077,3.939,3.156,7.745,6.506,11.512,9.9-5.592,4.354-10.151,8.033-11.565,9.179h12.538q2.3-2.051,4.585-4.136,2.289,2.079,4.585,4.136Z" transform="translate(-90.304 -20.638)" fill="#956a06" fill-rule="evenodd"/>
    <path id="Path_185" data-name="Path 185" d="M408.793,429.722c-4.607-3.395-12.01-6.859-18.722-1.189l-.77-.481s6.073-7.269,15.166-6.236c3.866.439,6.871,2.214,9.957,4.508.99.736,2.114,1.628,3.362,2.7,5.683,4.9,10.391,10.509,16.266,15.256a39.417,39.417,0,0,0,5.676,4.032s8.173,4.664,13.714.37a14.147,14.147,0,0,0,2.649-2.538l.49.244a18.274,18.274,0,0,1-8.741,7.205c-4.237,1.475-9.033.669-13-1.2a30.534,30.534,0,0,1-7.116-4.771l-5.579-5.364c-4.285-4.121-8.55-9-13.351-12.538Z" transform="translate(-111.491 -20.604)" fill="#00973d" fill-rule="evenodd"/>
    <path id="Path_186" data-name="Path 186" d="M342.7,442.866l4.964-4.964,4.34,4.34,4.341-4.34,4.964,4.964-4.964,4.964-4.341-4.341-4.34,4.341-4.964-4.964Z" transform="translate(-93.751 -26.766)" fill="#00973d" fill-rule="evenodd"/>
    <path id="Path_187" data-name="Path 187" d="M107.986,463.358h-1.967V453.239l-3.734,10.119h-1.392L97.247,453.4v9.959h-.773V451.475h2.033l3.712,10.066,3.756-10.066h2.011v11.883Z" transform="translate(-0.007 -31.934)" fill="#956a06"/>
    <path id="Path_188" data-name="Path 188" d="M121.488,452.611a.738.738,0,0,1-.31.588,1.19,1.19,0,0,1-1.458,0,.739.739,0,0,1-.309-.588.715.715,0,0,1,.309-.579,1.227,1.227,0,0,1,1.458,0,.714.714,0,0,1,.31.579Zm-.221,10.867h-1.635v-8.747a5.916,5.916,0,0,0,1.635-.25v9Z" transform="translate(-8.739 -32.054)" fill="#956a06"/>
    <path id="Path_189" data-name="Path 189" d="M134.855,465.132h-1.613v-6.966a1.315,1.315,0,0,0-1.48-1.5,3.016,3.016,0,0,0-2.453,1.318,2.554,2.554,0,0,0-.663,1.408v5.736h-1.636v-8.8a8,8,0,0,0,1.636-.2v2.1a5.409,5.409,0,0,1,1.657-1.567,4.156,4.156,0,0,1,2.033-.535,2.888,2.888,0,0,1,1.812.544,1.722,1.722,0,0,1,.707,1.434v7.019Z" transform="translate(-11.633 -33.708)" fill="#956a06"/>
    <path id="Path_190" data-name="Path 190" d="M146,452.611a.737.737,0,0,1-.309.588,1.19,1.19,0,0,1-1.458,0,.738.738,0,0,1-.31-.588.714.714,0,0,1,.31-.579,1.227,1.227,0,0,1,1.458,0,.713.713,0,0,1,.309.579Zm-.221,10.867h-1.635v-8.747a5.916,5.916,0,0,0,1.635-.25v9Z" transform="translate(-18.072 -32.054)" fill="#956a06"/>
    <path id="Path_191" data-name="Path 191" d="M157.591,462.827a2.1,2.1,0,0,1-1.027,1.826,4.336,4.336,0,0,1-2.464.686,3.991,3.991,0,0,1-3-1.034,2.759,2.759,0,0,1-.641-2l.995-.2a3.1,3.1,0,0,0-.155.855,1.736,1.736,0,0,0,.8,1.452,3.139,3.139,0,0,0,1.9.579,2.723,2.723,0,0,0,1.591-.445,1.385,1.385,0,0,0,.641-1.194,1.426,1.426,0,0,0-.8-1.247,9.2,9.2,0,0,0-1.636-.642,8.812,8.812,0,0,1-2.21-1,2.092,2.092,0,0,1,.066-3.652,4.449,4.449,0,0,1,2.475-.66q3.093,0,3.094,2.583l-.951.2a4.625,4.625,0,0,0,.066-.677,1.571,1.571,0,0,0-.63-1.274,2.434,2.434,0,0,0-1.58-.508,2.732,2.732,0,0,0-1.569.463,1.364,1.364,0,0,0-.685,1.158,1.71,1.71,0,0,0,1.038,1.425,14.211,14.211,0,0,0,1.945.784,7.812,7.812,0,0,1,1.945.891,1.966,1.966,0,0,1,.8,1.621Z" transform="translate(-20.558 -33.719)" fill="#956a06"/>
    <path id="Path_192" data-name="Path 192" d="M167.761,463q-.221,1.034-1.591,1.034-1.614,0-1.613-1.39v-6.966h-.972v-.517h.972v-1.478a9.609,9.609,0,0,0,1.635-.713v2.191h1.216v.517h-1.216V462.7q0,.838.552.837a.483.483,0,0,0,.531-.534Z" transform="translate(-25.557 -32.503)" fill="#956a06"/>
    <path id="Path_193" data-name="Path 193" d="M179.035,457.453a4.824,4.824,0,0,1-.375,1.585h-1.392a8.33,8.33,0,0,0,.4-1.567q0-.659-.707-.659-1.016,0-1.547,1.3a5.116,5.116,0,0,0-.464,1.71v5.309H173.29v-8.765a6.361,6.361,0,0,0,1.657-.232v2.192q.95-2.191,2.652-2.192,1.436,0,1.436,1.318Z" transform="translate(-29.252 -33.708)" fill="#956a06"/>
    <path id="Path_194" data-name="Path 194" d="M192.363,456.509l-4.751,10.262a3.89,3.89,0,0,1-.729,1.158,1.911,1.911,0,0,1-1.392.517,1.965,1.965,0,0,1-1.027-.2,1.54,1.54,0,0,1-.542-.739l.73-.427q.221.961.928.962.861,0,1.37-1.158l.6-1.372-3.8-9h1.746l2.961,7.162,3.293-7.162Z" transform="translate(-33.232 -33.85)" fill="#956a06"/>
    <path id="Path_195" data-name="Path 195" d="M216.018,460.732a5.476,5.476,0,0,1-.8,3.117,4.307,4.307,0,0,1-6.5,0,6.354,6.354,0,0,1,0-6.236,4.307,4.307,0,0,1,6.5,0,5.477,5.477,0,0,1,.8,3.118Zm-1.79,0q0-4.294-2.254-4.294t-2.254,4.294q0,4.276,2.254,4.276t2.254-4.276Z" transform="translate(-42.431 -33.708)" fill="#956a06"/>
    <path id="Path_196" data-name="Path 196" d="M227.794,452.648a3.173,3.173,0,0,1-.022.392l-1.016.321a8.078,8.078,0,0,0,.133-.8,1.259,1.259,0,0,0-.21-.686.7.7,0,0,0-.63-.329.884.884,0,0,0-.762.347,1.283,1.283,0,0,0-.254.775,5.953,5.953,0,0,0,.619,1.817h1.7v.5h-1.7v8.266h-1.636v-8.266h-1.591v-.5h1.591v-1.372a1.871,1.871,0,0,1,.486-1.336,1.949,1.949,0,0,1,1.525-.588q1.767,0,1.767,1.461Z" transform="translate(-47.958 -31.824)" fill="#956a06"/>
    <path id="Path_197" data-name="Path 197" d="M251.636,463.358h-1.9v-6.146h-5.679v6.146h-1.9V451.475h1.9v5.1h5.679v-5.1h1.9v11.883Z" transform="translate(-55.47 -31.934)" fill="#956a06"/>
    <path id="Path_198" data-name="Path 198" d="M269.161,462.389q0,2.94-3.491,2.94a4.541,4.541,0,0,1-3.469-1.265,4.228,4.228,0,0,1-1.061-3.028,7,7,0,0,1,.354-2.281,3.7,3.7,0,0,1,1.47-1.862,4.262,4.262,0,0,1,2.486-.757,3.5,3.5,0,0,1,2.431.855,3.424,3.424,0,0,1,1.039,2.031,11.417,11.417,0,0,1,.111,1.746h-6.077a9.261,9.261,0,0,0,.4,2.743,2.516,2.516,0,0,0,2.564,1.461,2.648,2.648,0,0,0,1.767-.6,1.835,1.835,0,0,0,.707-1.452,3.8,3.8,0,0,0-.089-.8l.862.178v.089Zm-1.724-2.049q-.066-3.849-2.055-3.848a2.114,2.114,0,0,0-2.121,1.746,10.917,10.917,0,0,0-.287,2.1Z" transform="translate(-62.697 -33.708)" fill="#956a06"/>
    <path id="Path_199" data-name="Path 199" d="M285.862,465.079a9.324,9.324,0,0,1-1.525.178,2.194,2.194,0,0,1-1.414-.356,1.5,1.5,0,0,1-.442-1.158,3.026,3.026,0,0,1-2.851,1.568,3.2,3.2,0,0,1-2.21-.713,2.391,2.391,0,0,1-.8-1.871,2.129,2.129,0,0,1,.8-1.781,6.173,6.173,0,0,1,2.143-.873q1.127-.285,1.481-.41a2.5,2.5,0,0,0,1.237-.73,1.232,1.232,0,0,0,.2-.748,1.535,1.535,0,0,0-.6-1.283,2.568,2.568,0,0,0-1.613-.463,2.775,2.775,0,0,0-1.569.455,1.357,1.357,0,0,0-.685,1.167,3.036,3.036,0,0,0,.31,1.069l-1.039-.2a2.515,2.515,0,0,1-.111-.713,1.752,1.752,0,0,1,1.171-1.585,5.028,5.028,0,0,1,2.32-.5,5.53,5.53,0,0,1,2.276.41,1.615,1.615,0,0,1,1.127,1.514v5.488q0,1.264.995,1.265a2.243,2.243,0,0,0,.729-.16l.066.427Zm-3.425-2.761v-3.011a3.349,3.349,0,0,1-1.26.748q-.619.232-1.237.445a2.674,2.674,0,0,0-1.017.713,2.451,2.451,0,0,0-.53,1.586,2.684,2.684,0,0,0,.331,1.372,1.45,1.45,0,0,0,1.326.73,2.169,2.169,0,0,0,1.79-.873,2.714,2.714,0,0,0,.6-1.71Z" transform="translate(-68.593 -33.708)" fill="#956a06"/>
    <path id="Path_200" data-name="Path 200" d="M294.916,463.259h-1.591V451.376a14.442,14.442,0,0,0,1.591-.16v12.043Z" transform="translate(-74.951 -31.835)" fill="#956a06"/>
    <path id="Path_201" data-name="Path 201" d="M303.245,463q-.221,1.034-1.591,1.034-1.614,0-1.613-1.39v-6.966h-.972v-.517h.972v-1.478a9.61,9.61,0,0,0,1.635-.713v2.191h1.216v.517h-1.216V462.7q0,.838.552.837a.483.483,0,0,0,.531-.534Z" transform="translate(-77.138 -32.503)" fill="#956a06"/>
    <path id="Path_202" data-name="Path 202" d="M316.619,463.248h-1.636v-7a1.273,1.273,0,0,0-1.436-1.444,2.9,2.9,0,0,0-2.5,1.479,3.119,3.119,0,0,0-.641,1.6v5.362h-1.635V451.365a8.544,8.544,0,0,0,1.635-.178v5.488a4.44,4.44,0,0,1,1.613-1.862,3.951,3.951,0,0,1,2.033-.544,3.081,3.081,0,0,1,1.845.517,1.642,1.642,0,0,1,.718,1.407v7.055Z" transform="translate(-80.833 -31.824)" fill="#956a06"/>
    <path id="Path_203" data-name="Path 203" d="M155.284,417.61c1.019,0,1.327-.308,1.327-1.327v-2.863a5.323,5.323,0,0,0-1.03-3.78,4.569,4.569,0,0,0-3.392-1.761c-4.424,0-8.944,5.59-9.289,9.731Zm72.272-1.54a5.232,5.232,0,0,0,3.609,1.895c.217.035,1.135.064,1.356.086a1.778,1.778,0,0,1-1.3,1.517c-.208-.025-.417-.054-.624-.086a6.49,6.49,0,0,1-2.673-.809c-2.165-1.28-2.926-2.882-2.926-5.578,0-4.038,3.7-7.287,7.958-7.287h2.094c0,3.725-.006,8.26-.009,12.317h0v3.655a3.645,3.645,0,0,1-.641,2.748,4.942,4.942,0,0,1-2.046,1.428,10.7,10.7,0,0,1-3.512.2v-1.769h2.48a1.647,1.647,0,0,0,1.653-1.769v-1.481l-.02,0c0-4.058,0-9.426,0-13.5h-.906a4.214,4.214,0,0,0-2.887,1.18,7.316,7.316,0,0,0-1.749,2.215,6.64,6.64,0,0,0,.144,5.045Zm-9.471,6.543a1.7,1.7,0,0,1-1.769,1.769h-2.654v1.769a12.239,12.239,0,0,0,3.759-.2,5.3,5.3,0,0,0,2.19-1.428c.782-.876.686-1.667.686-2.748V405.805h-2.211v16.808Zm-8.562-3.234h2.091V397.263h-2.109q0,11.075.018,22.116Zm-22.384-3.309c1.052,1.466,3.565,2.036,5.87,2.036V407.63h-.986a4.8,4.8,0,0,0-3.139,1.18,7.46,7.46,0,0,0-1.9,2.215c-.617,1.174-.669,3.892.157,5.045Zm8.147-10.262h-2.277c-4.625,0-8.654,3.249-8.654,7.287,0,2.7.828,4.3,3.182,5.578,1.811.984,5.622,1.255,7.738,1.255q0-7.044.011-14.12Zm-22.733,13.571h2.091V397.263h-2.109q0,11.075.018,22.116Zm46.793-20.016a1.651,1.651,0,1,1-1.651,1.651,1.651,1.651,0,0,1,1.651-1.651Zm-30.3,0a1.651,1.651,0,1,1-1.651,1.651,1.651,1.651,0,0,1,1.651-1.651Zm4.633,0a1.651,1.651,0,1,1-1.651,1.651,1.651,1.651,0,0,1,1.651-1.651Zm-92.915,0a1.651,1.651,0,1,1-1.651,1.651,1.651,1.651,0,0,1,1.651-1.651Zm4.633,0a1.651,1.651,0,1,1-1.651,1.651,1.651,1.651,0,0,1,1.651-1.651Zm96.325,23.251a1.7,1.7,0,0,1-1.769,1.769H197.3v1.769a12.236,12.236,0,0,0,3.758-.2,5.3,5.3,0,0,0,2.19-1.428c.782-.876.686-1.667.686-2.748V405.805h-2.211v16.808ZM99.16,415.633c1.021,1.424,3.462,1.977,5.7,1.977V407.436H103.9a4.664,4.664,0,0,0-3.048,1.146,7.261,7.261,0,0,0-1.847,2.151,5.975,5.975,0,0,0,.153,4.9Zm65.515,2.419h-5.814v-4.424a9.448,9.448,0,0,0-.339-2.573,6.83,6.83,0,0,0-1.79-3.08c-1.8-1.735-4.572-2.211-7.576-.92-4.887,2.1-5.956,7.024-7.7,9.325a3.8,3.8,0,0,1-.77.787v-6.635h-2.106v7.078h-5.414a17.245,17.245,0,0,0-.772-5.759,7.309,7.309,0,0,0-3.721-3.791,19.7,19.7,0,0,0-7.537-1.574c-2.039-.055-4.111.065-6.1.065v1.664H118.1c3.544,0,7.521-.409,10.384,2.246a5.836,5.836,0,0,1,1.992,4.182c.03.37.041.757.041,1.165v1.8H107.071V405.667H104.86c-4.492,0-8.4,3.156-8.4,7.077,0,2.129.123,3.294,2.015,4.724a7.813,7.813,0,0,0,2.7,1.344,5.885,5.885,0,0,0,2.535-.092l1.011-.17.139.829h61.925V397.263h-2.109v20.789Z" transform="translate(0 -11.294)" fill="#00973d" fill-rule="evenodd"/>
  </g>
</svg>
