<svg xmlns="http://www.w3.org/2000/svg" width="25.3" height="23.154" viewBox="0 0 25.3 23.154">
  <g id="lovely" transform="translate(-0.55 -1.046)">
    <path id="Path_32" data-name="Path 32" d="M1.1,7.15l12.1-5.5,12.1,5.5" fill="none" stroke="#fff" stroke-miterlimit="10" stroke-width="1.1"/>
    <path id="Path_33" data-name="Path 33" d="M11,22.37a2.173,2.173,0,0,0-.812-1.709A6.573,6.573,0,0,0,6.05,19.25a6.573,6.573,0,0,0-4.138,1.41A2.173,2.173,0,0,0,1.1,22.37v1.28H11Z" fill="none" stroke="#fff" stroke-linecap="square" stroke-miterlimit="10" stroke-width="1.1"/>
    <path id="Path_34" data-name="Path 34" d="M8.8,13.2c0,1.519-1.231,3.3-2.75,3.3S3.3,14.719,3.3,13.2a2.75,2.75,0,1,1,5.5,0Z" fill="none" stroke="#fff" stroke-linecap="square" stroke-miterlimit="10" stroke-width="1.1"/>
    <path id="Path_35" data-name="Path 35" d="M25.3,22.37a2.173,2.173,0,0,0-.812-1.709,6.777,6.777,0,0,0-8.276,0A2.173,2.173,0,0,0,15.4,22.37v1.28h9.9Z" fill="none" stroke="#fff" stroke-linecap="square" stroke-miterlimit="10" stroke-width="1.1"/>
    <path id="Path_36" data-name="Path 36" d="M23.1,13.2c0,1.519-1.231,3.3-2.75,3.3s-2.75-1.781-2.75-3.3a2.75,2.75,0,1,1,5.5,0Z" fill="none" stroke="#fff" stroke-linecap="square" stroke-miterlimit="10" stroke-width="1.1"/>
  </g>
</svg>
