<svg xmlns="http://www.w3.org/2000/svg" width="194" height="32.543" viewBox="0 0 194 32.543">
  <g id="manzilik" transform="translate(-115.166 2317.141)" style="isolation: isolate">
    <path id="Path_558" data-name="Path 558" d="M115.171-2301.161c0-.039,0-.079,0-.118v-12.837c0-.022,0-.044,0-.065-.008-.069.021-.1.092-.09a.454.454,0,0,0,.063,0h17.946c.169,0,.158-.025.158.16v29.067c-.131-.027-.248-.038-.357-.071a4.615,4.615,0,0,1-1.23-.641,22.275,22.275,0,0,1-2.647-2.194,61.767,61.767,0,0,1-4.842-5.145c-.02-.026-.043-.049-.07-.08l-.067.074a60.781,60.781,0,0,1-4.452,4.8,26.706,26.706,0,0,1-2.7,2.322,7.443,7.443,0,0,1-1.168.72,1.889,1.889,0,0,1-.632.2c-.025,0-.052,0-.088,0,0-.042-.006-.076-.006-.112v-15.885c0-.035,0-.071,0-.105.047,0,.095.013.142.013q1.927,0,3.854,0c.085,0,.113.022.11.11-.008.294-.009.588-.012.88q-.029,3.107-.058,6.207v.1l.038.022a.581.581,0,0,1,.058-.09,71.055,71.055,0,0,0,4.85-5.515.169.169,0,0,1,.289,0c.688.834,1.368,1.674,2.065,2.5.882,1.046,1.813,2.05,2.776,3.022.023.023.049.045.088.08,0-.059,0-.1,0-.131-.009-.7-.019-1.409-.028-2.111q-.029-2.461-.057-4.924c0-.147-.025-.141.146-.141h3.854c.036,0,.072,0,.109-.006l.019-.035a.429.429,0,0,1-.089-.06c-.6-.61-1.2-1.214-1.784-1.836q-3.642-3.881-6.911-8.079a.382.382,0,0,0-.38-.179.185.185,0,0,0-.144.071q-1.669,2.132-3.441,4.18c-1.738,2.011-3.524,3.975-5.4,5.853C115.231-2301.209,115.2-2301.187,115.171-2301.161Z" transform="translate(0 0.054)" fill="#bdb39a"/>
    <g id="Group_820" data-name="Group 820" transform="translate(140.83 -2317.141)">
      <path id="Path_559" data-name="Path 559" d="M174.067-2314.272v29.228h-7.6l.156-13.29a124.759,124.759,0,0,0-9.236,10.328h-.351a117.975,117.975,0,0,0-9.2-10.328l.156,13.29h-7.639v-29.228c2.844,0,10.912,7.755,16.875,14.769C163.155-2306.517,171.261-2314.272,174.067-2314.272Z" transform="translate(-140.357 2317.195)" fill="#464774"/>
      <path id="Path_560" data-name="Path 560" d="M197.263-2284.948a14.3,14.3,0,0,1-6.156-1.363,14.585,14.585,0,0,1-6.548,1.519c-4.832,0-7.56-2.454-7.56-6.9,0-4.4,3.117-6.859,8.73-6.859a11.881,11.881,0,0,1,4.131.78v-.506c0-1.832-1.4-2.885-3.781-2.885a33.529,33.529,0,0,0-7.405.936v-5.378a28.021,28.021,0,0,1,8.925-1.325c6.08,0,9.664,2.963,9.664,8.029Zm-9.625-5.067a6.412,6.412,0,0,0,2.222-.429v-2.923a6.308,6.308,0,0,0-2.222-.466c-1.949,0-3,.66-3,1.986C184.638-2290.6,185.689-2290.014,187.638-2290.014Z" transform="translate(-139.67 2317.335)" fill="#464774"/>
      <path id="Path_561" data-name="Path 561" d="M222.994-2298.314v13.133h-7.4v-12.55c0-2.377-1.13-3.43-3.468-3.43a6.376,6.376,0,0,0-3.47,1.053v14.927h-7.4v-21.591a13.142,13.142,0,0,1,6.858,1.715,15.793,15.793,0,0,1,7.054-1.871C220.111-2306.928,222.994-2304.356,222.994-2298.314Z" transform="translate(-139.215 2317.335)" fill="#464774"/>
      <path id="Path_562" data-name="Path 562" d="M245.1-2290.411v5.223h-19.33c0-2.768,5.417-10.678,8.5-16.133h-8.339v-5.224H244.9c0,2.728-5.418,10.679-8.5,16.135Z" transform="translate(-138.755 2317.34)" fill="#464774"/>
      <path id="Path_563" data-name="Path 563" d="M247.681-2312.933a4.053,4.053,0,0,1,4.21-4.209,4.085,4.085,0,0,1,4.247,4.209,4.084,4.084,0,0,1-4.247,4.209A4.053,4.053,0,0,1,247.681-2312.933Zm7.873,6.586v21.357h-7.405v-21.357Z" transform="translate(-138.344 2317.141)" fill="#464774"/>
      <path id="Path_564" data-name="Path 564" d="M260-2313.773l7.4-2.144v30.9H260Z" transform="translate(-138.112 2317.164)" fill="#464774"/>
      <path id="Path_565" data-name="Path 565" d="M271.395-2312.933a4.054,4.054,0,0,1,4.21-4.209,4.085,4.085,0,0,1,4.247,4.209,4.084,4.084,0,0,1-4.247,4.209A4.053,4.053,0,0,1,271.395-2312.933Zm7.873,6.586v21.357h-7.405v-21.357Z" transform="translate(-137.899 2317.141)" fill="#464774"/>
      <path id="Path_566" data-name="Path 566" d="M297.469-2285.013a64.93,64.93,0,0,0-6.353-9.47v9.47h-7.4v-28.76l7.4-2.144v18a70.57,70.57,0,0,0,5.964-8.457h8.573a110.527,110.527,0,0,1-7.6,10.133,66.7,66.7,0,0,1,7.95,11.223Z" transform="translate(-137.667 2317.164)" fill="#464774"/>
    </g>
  </g>
</svg>
