<svg xmlns="http://www.w3.org/2000/svg" width="25.139" height="25.139" viewBox="0 0 25.139 25.139">
  <g id="quality" transform="translate(-0.55 -0.55)">
    <line id="Line_37" data-name="Line 37" x2="5.422" y2="5.422" transform="translate(19.878 19.878)" fill="none" stroke="#fff" stroke-miterlimit="10" stroke-width="1.1"/>
    <circle id="Ellipse_5" data-name="Ellipse 5" cx="11" cy="11" r="11" transform="translate(1.1 1.1)" fill="none" stroke="#fff" stroke-linecap="square" stroke-miterlimit="10" stroke-width="1.1"/>
    <path id="Path_37" data-name="Path 37" d="M17.05,17.05H7.15V15.817a2.2,2.2,0,0,1,1.576-2.111A12.011,12.011,0,0,1,12.1,13.2a12.06,12.06,0,0,1,3.369.513,2.2,2.2,0,0,1,1.581,2.113Z" fill="none" stroke="#fff" stroke-linecap="square" stroke-miterlimit="10" stroke-width="1.1"/>
    <path id="Path_38" data-name="Path 38" d="M9.35,8.25a2.75,2.75,0,0,1,5.5,0c0,1.519-1.231,3.3-2.75,3.3S9.35,9.769,9.35,8.25Z" fill="none" stroke="#fff" stroke-linecap="square" stroke-miterlimit="10" stroke-width="1.1"/>
  </g>
</svg>
