<svg xmlns="http://www.w3.org/2000/svg" width="167.784" height="66.998" viewBox="0 0 167.784 66.998">
  <g id="sce" transform="translate(-76.302 -160.184)" opacity="0.8" style="isolation: isolate">
    <g id="Group_93" data-name="Group 93" transform="translate(76.302 160.184)">
      <path id="Path_204" data-name="Path 204" d="M286.237,203.836l-.885-9.227c.463.253.808.419,1.129.62a27.4,27.4,0,0,0,19.538,3.781,9.745,9.745,0,0,0,3.33-1.2c3.377-1.985,3.47-6.29.056-8.146a39.313,39.313,0,0,0-6.931-2.648c-3.256-1.033-6.6-1.814-9.851-2.852-4.929-1.572-7.835-6.246-7.39-11.741.524-6.471,4.655-9.782,10.695-11.26,6.811-1.666,13.6-1.07,20.309.711a4.86,4.86,0,0,1,.675.314l.611,8.5c-.581-.216-.987-.343-1.374-.513a30.641,30.641,0,0,0-17.367-2.043,8.1,8.1,0,0,0-3.129,1.255,3.554,3.554,0,0,0-.332,5.948,15.227,15.227,0,0,0,4.473,2.376c2.894.956,5.9,1.591,8.839,2.417a51.474,51.474,0,0,1,5.173,1.655c5.287,2.109,7.555,6.129,7.088,12.077-.61,7.764-6.049,11.334-12.575,12.469a40.644,40.644,0,0,1-20.556-1.72,9.346,9.346,0,0,1-1-.417A4.034,4.034,0,0,1,286.237,203.836Z" transform="translate(-234.774 -160.184)" fill="#223146"/>
      <path id="Path_205" data-name="Path 205" d="M492.073,162.567c.131,3.046.253,5.891.385,8.95-.694-.291-1.254-.513-1.8-.758a32.243,32.243,0,0,0-14.171-3c-8.681.234-14.643,6.01-14.694,14.491a22.749,22.749,0,0,0,.583,5.722c1.644,6.433,7.264,10.673,14.145,11.116a31.114,31.114,0,0,0,16.22-3.455c.449-.225.906-.438,1.576-.76-.443,3.284-.858,6.358-1.3,9.63-.786.275-1.633.639-2.516.87a45.8,45.8,0,0,1-20.822.667,21.352,21.352,0,0,1-17.3-17.65,27.131,27.131,0,0,1,.365-12.214c2.136-7.865,7.468-12.735,15.387-14.848,7.038-1.879,14.1-1.208,21.092.439C490.209,162,491.181,162.314,492.073,162.567Z" transform="translate(-361.214 -160.189)" fill="#223146"/>
      <path id="Path_206" data-name="Path 206" d="M116.946,186.06a11.393,11.393,0,0,1-5.552-3.8,43.391,43.391,0,0,1,1.311-4.447c.567-1.4,1.418-2.687,1.99-4.23l-5.632,4.85a10.606,10.606,0,0,1-.961-6.067,16.833,16.833,0,0,1,8.415-3.566l-.012-.342-7.031-.495c.152-1.369,1.34-3.09,3.225-4.519a13.619,13.619,0,0,1,6.694,3.488l-1.859-5.375a11.979,11.979,0,0,1,7.419-.117l-1.424,4.62,6.316-2.951,3.594,4.808-7.385.543-.037.358a18.307,18.307,0,0,1,8.2,3.413,9.329,9.329,0,0,1-.787,6.073c-1.036-.89-2.013-1.74-3-2.576a26.84,26.84,0,0,0-3.107-2.347,19.754,19.754,0,0,1,3.677,9.1,11.55,11.55,0,0,1-5.373,3.762c-.372-2.535-.592-4.89-1.09-7.187a34.314,34.314,0,0,0-2.417-6.738c.339,6.39.677,12.779,1.025,19.326l-1.835,1.25-2.078-1.422c.106-1.321.928-14.689,1.057-19.062A44.432,44.432,0,0,0,116.946,186.06Z" transform="translate(-100.36 -160.735)" fill="#d59547"/>
      <path id="Path_207" data-name="Path 207" d="M657.789,318.688c.829-.284,14.445-.014,20.159-1.651a4.1,4.1,0,0,1,.5-.1v8.8H648.838Z" transform="translate(-510.66 -279.103)" fill="#223146"/>
      <path id="Path_208" data-name="Path 208" d="M670.1,249.228a76.9,76.9,0,0,1-19.956-3.672c6.481-1.95,12.991-3.514,19.956-3.666Z" transform="translate(-511.647 -222.171)" fill="#d69644"/>
      <path id="Path_209" data-name="Path 209" d="M657.789,167.619c.829.284,14.445.014,20.159,1.651a4.1,4.1,0,0,0,.5.1v-8.8H648.838Z" transform="translate(-510.66 -160.482)" fill="#223146"/>
      <path id="Path_210" data-name="Path 210" d="M115.054,247.363s3.082-4.8,3.009-4.884l-20.88,14.175L76.3,242.479c-.073.082,3.009,4.884,3.009,4.884.17.233,7.445,6.124,14.342,11.686l-14.522,9.858h9.332s3.9-3.137,8.719-7.014c4.814,3.877,8.719,7.014,8.719,7.014h9.332l-14.523-9.858C107.609,253.487,114.885,247.6,115.054,247.363Z" transform="translate(-76.302 -222.618)" fill="#d59547"/>
    </g>
    <g id="Group_94" data-name="Group 94" transform="translate(128.576 211.15)">
      <path id="Path_211" data-name="Path 211" d="M301.812,379.934c.337,0,.507-.181.507-.544s-.17-.549-.507-.549-.507.182-.507.549S301.473,379.934,301.812,379.934Z" transform="translate(-299.276 -377.036)" fill="#223146"/>
      <path id="Path_212" data-name="Path 212" d="M320.236,403.769q-.507,0-.507.55t.507.544c.34,0,.511-.181.511-.544S320.575,403.769,320.236,403.769Z" transform="translate(-313.253 -395.947)" fill="#223146"/>
      <path id="Path_213" data-name="Path 213" d="M326.431,403.769c-.34,0-.511.183-.511.55s.171.544.511.544.507-.181.507-.544S326.769,403.769,326.431,403.769Z" transform="translate(-317.95 -395.947)" fill="#223146"/>
      <path id="Path_214" data-name="Path 214" d="M308.716,386.576h-.607a1.024,1.024,0,0,1-.766-.3,1.062,1.062,0,0,1-.3-.781v-2.134h-.832v3.218h-.606a1.029,1.029,0,0,1-.767-.3,1.068,1.068,0,0,1-.3-.781v-2.134h-.831v3.218h-1.6a.977.977,0,0,1-.7-.252.9.9,0,0,1-.265-.683V382.6h-.869v3.978h-1.3a.975.975,0,0,1-.7-.252.9.9,0,0,1-.268-.683V382.6h-.831v4.762q0,1.566-1.643,1.566h-.478a1.115,1.115,0,0,1-.945-.433,1.975,1.975,0,0,1-.33-1.22,5.91,5.91,0,0,1,.334-2.106H293.3a5.687,5.687,0,0,0-.4,2.163,2.585,2.585,0,0,0,.537,1.728,1.788,1.788,0,0,0,1.431.631h.7A2.132,2.132,0,0,0,298,387.3v-.52a1.058,1.058,0,0,0,.932.524v.034h2.206v-.559a1.112,1.112,0,0,0,1.1.559h2.3v-.559a1.1,1.1,0,0,0,1.093.559h1.41v-.559a1.094,1.094,0,0,0,1.093.559h1.408V382.6h-.83Z" transform="translate(-292.896 -379.886)" fill="#223146"/>
      <path id="Path_215" data-name="Path 215" d="M392.906,375.423q.507,0,.507-.544t-.507-.549c-.337,0-.507.183-.507.549S392.569,375.423,392.906,375.423Z" transform="translate(-368.384 -373.613)" fill="#223146"/>
      <path id="Path_216" data-name="Path 216" d="M393.544,378.127H392.05a.977.977,0,0,1-.7-.252.9.9,0,0,1-.266-.684v-5.73h-.869v6.666h-2.856a1.73,1.73,0,0,0,.575-.728,2.394,2.394,0,0,0,.217-.991,2.357,2.357,0,0,0-.618-1.733,2.168,2.168,0,0,0-1.613-.626,2.092,2.092,0,0,0-1.661.736,2.78,2.78,0,0,0-.635,1.886,2.729,2.729,0,0,0,.324,1.456h-2.192v-2.382a3.279,3.279,0,0,0-.865-2.426,3.323,3.323,0,0,0-2.459-.864,6.276,6.276,0,0,0-2.034.305l.224.754a5.7,5.7,0,0,1,1.81-.286,2.469,2.469,0,0,1,1.891.647,2.769,2.769,0,0,1,.6,1.946v2.306h-1.476v-3.491h-1.185a3.151,3.151,0,0,0-1.976.547,1.845,1.845,0,0,0-.7,1.545,1.568,1.568,0,0,0,.682,1.4h-1.718a.977.977,0,0,1-.7-.252.9.9,0,0,1-.265-.684v-3.042h-.869v3.978h-1.3a1.1,1.1,0,0,1-.742-.3,1.3,1.3,0,0,1-.432-.656q-.687-2.655-2.393-3.329l-.314.745q1.575.731,2.072,3.538h-3.257v.764h4.1v-.549a1.147,1.147,0,0,0,.931.533v.016h2.206v-.559a1.111,1.111,0,0,0,1.1.559h16.4v-.559a1.111,1.111,0,0,0,1.1.559h2.233v-7.43h-.869Zm-14.927,0h-.8a1.286,1.286,0,0,1-1.36-1.366q0-1.36,1.771-1.361h.393Zm8.25-.461a1.441,1.441,0,0,1-1.144.461h-.888a2.481,2.481,0,0,1-.344-1.456,2.119,2.119,0,0,1,.405-1.361,1.313,1.313,0,0,1,2-.086,1.675,1.675,0,0,1,.374,1.156A1.891,1.891,0,0,1,386.867,377.666Z" transform="translate(-348.619 -371.437)" fill="#223146"/>
      <path id="Path_217" data-name="Path 217" d="M510,375.423q.507,0,.507-.544t-.507-.549c-.34,0-.511.183-.511.549S509.663,375.423,510,375.423Z" transform="translate(-457.218 -373.613)" fill="#223146"/>
      <path id="Path_218" data-name="Path 218" d="M503.808,375.423c.34,0,.511-.182.511-.544s-.171-.549-.511-.549-.507.183-.507.549S503.469,375.423,503.808,375.423Z" transform="translate(-452.521 -373.613)" fill="#223146"/>
      <path id="Path_219" data-name="Path 219" d="M521.988,403.769q-.505,0-.505.55t.505.544c.341,0,.511-.181.511-.544S522.329,403.769,521.988,403.769Z" transform="translate(-466.315 -395.947)" fill="#223146"/>
      <path id="Path_220" data-name="Path 220" d="M528.185,403.769q-.512,0-.511.55t.511.544c.337,0,.507-.181.507-.544S528.522,403.769,528.185,403.769Z" transform="translate(-471.012 -395.947)" fill="#223146"/>
      <path id="Path_221" data-name="Path 221" d="M506.178,382.6h-.869v3.978H503V382.6h-1.476a2.768,2.768,0,0,0-1.944.674,2.372,2.372,0,0,0-.735,1.839,2.057,2.057,0,0,0,2.23,2.23h5.1Zm-4.006,3.978h-1.117q-1.338,0-1.337-1.476a1.694,1.694,0,0,1,.479-1.279,1.879,1.879,0,0,1,1.359-.463h.616Z" transform="translate(-449.143 -379.886)" fill="#223146"/>
      <path id="Path_222" data-name="Path 222" d="M535.174,381.333l-.314.745q1.576.731,2.072,3.538h-3.256v.764h4.1v-.745Q537.176,382.116,535.174,381.333Z" transform="translate(-475.565 -378.926)" fill="#223146"/>
      <path id="Path_223" data-name="Path 223" d="M574.739,378.127h-1.3a.98.98,0,0,1-.7-.252.9.9,0,0,1-.267-.684v-3.042h-.831v3.978h-.607a1.025,1.025,0,0,1-.766-.3,1.062,1.062,0,0,1-.3-.781v-2.134h-.832v3.218h-.607a1.029,1.029,0,0,1-.766-.3,1.068,1.068,0,0,1-.3-.781v-2.134h-.831v3.218h-2.487a3.165,3.165,0,0,1-1.085-.205,3.864,3.864,0,0,0,1.287-1.506,4.367,4.367,0,0,0,.471-1.965,3.3,3.3,0,0,0-2.139-.616,3.537,3.537,0,0,0-1.493.337,2.984,2.984,0,0,0-1.177.933,4.67,4.67,0,0,0,1.7,2.827,3.045,3.045,0,0,1-1.164.2h-1.829v-3.978h-1.28a2.761,2.761,0,0,0-1.942.674,2.367,2.367,0,0,0-.736,1.839,2.255,2.255,0,0,0,.571,1.655,2.171,2.171,0,0,0,1.611.575h.956v.282a1.232,1.232,0,0,1-.383.952,1.469,1.469,0,0,1-1.036.351,3.06,3.06,0,0,1-1.384-.392l-.392.654a3.179,3.179,0,0,0,1.758.5,2.331,2.331,0,0,0,1.665-.559,2.036,2.036,0,0,0,.592-1.557v-.234h1.84a3.545,3.545,0,0,0,1.818-.487,3.8,3.8,0,0,0,1.811.487h3.279v-.559a1.1,1.1,0,0,0,1.093.559h1.41v-.559a1.094,1.094,0,0,0,1.093.559h1.409v-.559a1.058,1.058,0,0,0,.932.524v.034h2.206v-7.43h-.869Zm-16.852,0h-.916q-1.342,0-1.343-1.476a1.69,1.69,0,0,1,.481-1.279,1.874,1.874,0,0,1,1.359-.463h.42Zm4.5-.635a3.69,3.69,0,0,1-1.437-2.13,2.02,2.02,0,0,1,.769-.539,2.449,2.449,0,0,1,.993-.224,2.168,2.168,0,0,1,1.213.263A3.265,3.265,0,0,1,562.385,377.492Z" transform="translate(-491.517 -371.437)" fill="#223146"/>
      <rect id="Rectangle_38" data-name="Rectangle 38" width="0.869" height="7.43" transform="translate(85.753 0.024)" fill="#223146"/>
      <path id="Path_224" data-name="Path 224" d="M679.171,375.423q.507,0,.507-.544t-.507-.549c-.34,0-.511.183-.511.549S678.831,375.423,679.171,375.423Z" transform="translate(-585.558 -373.613)" fill="#223146"/>
      <path id="Path_225" data-name="Path 225" d="M672.976,375.423c.34,0,.511-.182.511-.544s-.171-.549-.511-.549-.507.183-.507.549S672.637,375.423,672.976,375.423Z" transform="translate(-580.861 -373.613)" fill="#223146"/>
      <path id="Path_226" data-name="Path 226" d="M694.559,373.138v-.478q-.353.034-.8.1l-.177.029a.5.5,0,0,1-.3-.458.447.447,0,0,1,.511-.5,1.044,1.044,0,0,1,.487.119l.148-.444a1.441,1.441,0,0,0-.645-.143,1.077,1.077,0,0,0-.728.232.806.806,0,0,0-.27.647.705.705,0,0,0,.344.616l-.464.067v.453q.291-.057,1.01-.148T694.559,373.138Z" transform="translate(-596.185 -371.361)" fill="#223146"/>
      <path id="Path_227" data-name="Path 227" d="M705.385,403.769q-.507,0-.507.55t.507.544c.34,0,.511-.181.511-.544S705.724,403.769,705.385,403.769Z" transform="translate(-605.448 -395.947)" fill="#223146"/>
      <path id="Path_228" data-name="Path 228" d="M711.58,403.769c-.34,0-.511.183-.511.55s.171.544.511.544.507-.181.507-.544S711.918,403.769,711.58,403.769Z" transform="translate(-610.145 -395.947)" fill="#223146"/>
      <path id="Path_229" data-name="Path 229" d="M689.123,378.127h-2.268v-2.382a3.279,3.279,0,0,0-.865-2.426,3.323,3.323,0,0,0-2.459-.864,6.275,6.275,0,0,0-2.034.305l.224.754a5.7,5.7,0,0,1,1.81-.286,2.469,2.469,0,0,1,1.891.647,2.769,2.769,0,0,1,.6,1.946v2.306h-1.476v-3.491h-1.185a3.152,3.152,0,0,0-1.976.547,1.845,1.845,0,0,0-.7,1.545,1.568,1.568,0,0,0,.682,1.4h-1.72a.977.977,0,0,1-.7-.252.9.9,0,0,1-.265-.684v-3.042h-.869v3.978h-1.5a.978.978,0,0,1-.7-.252.9.9,0,0,1-.265-.684v-3.042h-.869v3.978h-2.306v-3.978H670.7a2.768,2.768,0,0,0-1.944.674,2.371,2.371,0,0,0-.735,1.839,2.057,2.057,0,0,0,2.23,2.23h5.1v-.559a1.112,1.112,0,0,0,1.1.559h2.235v-.559a1.112,1.112,0,0,0,1.1.559h10.213v-7.43h-.869Zm-17.782,0h-1.117q-1.338,0-1.337-1.476a1.694,1.694,0,0,1,.48-1.279,1.878,1.878,0,0,1,1.359-.463h.616Zm12.378,0h-.8a1.286,1.286,0,0,1-1.36-1.366q0-1.36,1.771-1.361h.392Z" transform="translate(-577.484 -371.437)" fill="#223146"/>
      <rect id="Rectangle_39" data-name="Rectangle 39" width="0.869" height="7.43" transform="translate(114.17 0.024)" fill="#223146"/>
    </g>
    <g id="Group_95" data-name="Group 95" transform="translate(128.229 223.272)">
      <path id="Path_230" data-name="Path 230" d="M291.613,424.681a1.915,1.915,0,0,0,.916.241c.444,0,.691-.208.691-.516,0-.287-.191-.455-.675-.629-.624-.225-1.022-.557-1.022-1.1,0-.618.516-1.089,1.337-1.089a2.013,2.013,0,0,1,.911.19l-.168.557a1.615,1.615,0,0,0-.753-.18c-.438,0-.629.236-.629.455,0,.292.22.426.725.623.658.248.977.579.977,1.124,0,.607-.461,1.135-1.438,1.135a2.253,2.253,0,0,1-1.023-.236Z" transform="translate(-291.46 -421.585)" fill="#223146"/>
      <path id="Path_231" data-name="Path 231" d="M311.786,424.553l-.325,1.073h-.714l1.213-3.787h.882l1.231,3.787h-.742l-.342-1.073Zm1.085-.523-.3-.933c-.073-.23-.134-.489-.191-.708h-.01c-.057.219-.113.483-.18.708l-.293.933Z" transform="translate(-306.092 -421.778)" fill="#223146"/>
      <path id="Path_232" data-name="Path 232" d="M334.309,421.839v2.208c0,.742.31,1.085.775,1.085.5,0,.8-.342.8-1.085v-2.208h.692V424c0,1.169-.6,1.686-1.511,1.686-.878,0-1.444-.489-1.444-1.68v-2.169Z" transform="translate(-323.444 -421.778)" fill="#223146"/>
      <path id="Path_233" data-name="Path 233" d="M356.815,421.8a6.945,6.945,0,0,1,1.1-.078,2.308,2.308,0,0,1,1.545.438,1.693,1.693,0,0,1,.591,1.394,1.962,1.962,0,0,1-.591,1.506,2.53,2.53,0,0,1-1.714.517,7.452,7.452,0,0,1-.932-.051Zm.691,3.209a2.641,2.641,0,0,0,.382.016,1.3,1.3,0,0,0,1.433-1.449,1.2,1.2,0,0,0-1.343-1.315,2.181,2.181,0,0,0-.472.039Z" transform="translate(-341.042 -421.69)" fill="#223146"/>
      <path id="Path_234" data-name="Path 234" d="M381.075,421.839v3.787h-.691v-3.787Z" transform="translate(-358.923 -421.778)" fill="#223146"/>
      <path id="Path_235" data-name="Path 235" d="M408.766,425.321a2.377,2.377,0,0,1-.977.169,1.787,1.787,0,0,1-1.932-1.905,1.9,1.9,0,0,1,2.022-2,2.179,2.179,0,0,1,.922.168l-.151.551a1.836,1.836,0,0,0-.742-.146,1.261,1.261,0,0,0-1.326,1.394,1.243,1.243,0,0,0,1.32,1.366,1.938,1.938,0,0,0,.754-.141Z" transform="translate(-378.247 -421.585)" fill="#223146"/>
      <path id="Path_236" data-name="Path 236" d="M430.167,423.5a1.79,1.79,0,0,1-1.815,1.995,1.749,1.749,0,0,1-1.741-1.927,1.813,1.813,0,0,1,1.8-1.984A1.749,1.749,0,0,1,430.167,423.5Zm-2.826.056c0,.77.387,1.382,1.05,1.382s1.045-.618,1.045-1.411c0-.713-.354-1.388-1.045-1.388S427.342,422.776,427.342,423.557Z" transform="translate(-393.993 -421.585)" fill="#223146"/>
      <path id="Path_237" data-name="Path 237" d="M451.48,425.626v-3.787h.786l.978,1.624a10.462,10.462,0,0,1,.646,1.27h.012c-.046-.506-.063-.995-.063-1.573v-1.321h.641v3.787h-.713l-.989-1.663a13.272,13.272,0,0,1-.679-1.31l-.017.006c.028.489.033.989.033,1.613v1.354Z" transform="translate(-412.86 -421.778)" fill="#223146"/>
      <path id="Path_238" data-name="Path 238" d="M476.984,425.321a2.377,2.377,0,0,1-.977.169,1.787,1.787,0,0,1-1.932-1.905,1.9,1.9,0,0,1,2.022-2,2.178,2.178,0,0,1,.922.168l-.151.551a1.836,1.836,0,0,0-.742-.146,1.261,1.261,0,0,0-1.326,1.394,1.243,1.243,0,0,0,1.32,1.366,1.937,1.937,0,0,0,.753-.141Z" transform="translate(-430.001 -421.585)" fill="#223146"/>
      <path id="Path_239" data-name="Path 239" d="M496.938,421.839v3.787h-.691v-3.787Z" transform="translate(-446.823 -421.778)" fill="#223146"/>
      <path id="Path_240" data-name="Path 240" d="M510.054,421.839h.691v3.209H512.3v.579h-2.248Z" transform="translate(-457.298 -421.778)" fill="#223146"/>
      <path id="Path_241" data-name="Path 241" d="M544.422,423.5a1.79,1.79,0,0,1-1.815,1.995,1.749,1.749,0,0,1-1.741-1.927,1.812,1.812,0,0,1,1.8-1.984A1.749,1.749,0,0,1,544.422,423.5Zm-2.826.056c0,.77.387,1.382,1.05,1.382s1.045-.618,1.045-1.411c0-.713-.354-1.388-1.045-1.388S541.6,422.776,541.6,423.557Z" transform="translate(-480.673 -421.585)" fill="#223146"/>
      <path id="Path_242" data-name="Path 242" d="M565.741,421.839h2.185v.568h-1.494v1.045h1.393v.568h-1.393v1.607h-.691Z" transform="translate(-499.545 -421.778)" fill="#223146"/>
      <path id="Path_243" data-name="Path 243" d="M599.854,423.946h-1.427v1.113h1.6v.567h-2.286v-3.787h2.2v.568h-1.511v.977h1.427Z" transform="translate(-523.818 -421.778)" fill="#223146"/>
      <path id="Path_244" data-name="Path 244" d="M617.391,425.626v-3.787h.786l.977,1.624a10.456,10.456,0,0,1,.647,1.27h.011c-.046-.506-.063-.995-.063-1.573v-1.321h.641v3.787h-.714l-.989-1.663a13.331,13.331,0,0,1-.679-1.31l-.017.006c.028.489.034.989.034,1.613v1.354Z" transform="translate(-538.729 -421.778)" fill="#223146"/>
      <path id="Path_245" data-name="Path 245" d="M643.214,425.33a3.763,3.763,0,0,1-1.22.213,2.035,2.035,0,0,1-1.483-.506,1.874,1.874,0,0,1-.528-1.393,1.924,1.924,0,0,1,2.106-1.966,2.514,2.514,0,0,1,1.006.18l-.151.557a2.04,2.04,0,0,0-.86-.163,1.267,1.267,0,0,0-1.376,1.36,1.252,1.252,0,0,0,1.314,1.371,1.324,1.324,0,0,0,.523-.079v-.944h-.668v-.545h1.337Z" transform="translate(-555.869 -421.655)" fill="#223146"/>
      <path id="Path_246" data-name="Path 246" d="M664.664,421.839v3.787h-.69v-3.787Z" transform="translate(-574.069 -421.778)" fill="#223146"/>
      <path id="Path_247" data-name="Path 247" d="M677.779,425.626v-3.787h.786l.977,1.624a10.43,10.43,0,0,1,.647,1.27h.011c-.046-.506-.063-.995-.063-1.573v-1.321h.641v3.787h-.713l-.989-1.663a13.308,13.308,0,0,1-.679-1.31l-.017.006c.029.489.033.989.033,1.613v1.354Z" transform="translate(-584.543 -421.778)" fill="#223146"/>
      <path id="Path_248" data-name="Path 248" d="M703.306,423.946h-1.427v1.113h1.6v.567h-2.286v-3.787h2.2v.568h-1.511v.977h1.427Z" transform="translate(-602.302 -421.778)" fill="#223146"/>
      <path id="Path_249" data-name="Path 249" d="M722.961,423.946h-1.427v1.113h1.6v.567h-2.286v-3.787h2.2v.568h-1.511v.977h1.427Z" transform="translate(-617.214 -421.778)" fill="#223146"/>
      <path id="Path_250" data-name="Path 250" d="M740.5,421.8a6.56,6.56,0,0,1,1.045-.078,1.755,1.755,0,0,1,1.169.3.956.956,0,0,1,.325.759,1.01,1.01,0,0,1-.685.95v.017a.964.964,0,0,1,.528.731,7.65,7.65,0,0,0,.3,1.056h-.714a5.161,5.161,0,0,1-.252-.893c-.107-.495-.287-.652-.681-.663h-.348v1.556H740.5Zm.685,1.675h.41c.466,0,.759-.248.759-.624,0-.416-.292-.607-.742-.607a2.021,2.021,0,0,0-.427.034Z" transform="translate(-632.124 -421.69)" fill="#223146"/>
      <path id="Path_251" data-name="Path 251" d="M760.861,424.681a1.914,1.914,0,0,0,.916.241c.444,0,.691-.208.691-.516,0-.287-.191-.455-.675-.629-.624-.225-1.022-.557-1.022-1.1,0-.618.516-1.089,1.337-1.089a2.013,2.013,0,0,1,.911.19l-.168.557a1.615,1.615,0,0,0-.754-.18c-.438,0-.629.236-.629.455,0,.292.22.426.725.623.658.248.977.579.977,1.124,0,.607-.461,1.135-1.438,1.135a2.254,2.254,0,0,1-1.023-.236Z" transform="translate(-647.458 -421.585)" fill="#223146"/>
    </g>
  </g>
</svg>
