<svg xmlns="http://www.w3.org/2000/svg" width="25.3" height="25.3" viewBox="0 0 25.3 25.3">
  <g id="world" transform="translate(-0.55 -0.55)">
    <path id="Path_25" data-name="Path 25" d="M4.07,21.175a12.106,12.106,0,0,1,18.2,0" fill="none" stroke="#fff" stroke-miterlimit="10" stroke-width="1.1"/>
    <path id="Path_26" data-name="Path 26" d="M4.07,5.225A12.1,12.1,0,0,0,13.2,9.35a11.981,11.981,0,0,0,9.075-4.125" fill="none" stroke="#fff" stroke-miterlimit="10" stroke-width="1.1"/>
    <path id="Path_27" data-name="Path 27" d="M13.2,25.3c4.29-2.035,6.6-6.71,6.6-12.1S17.49,3.135,13.2,1.1" fill="none" stroke="#fff" stroke-miterlimit="10" stroke-width="1.1"/>
    <path id="Path_28" data-name="Path 28" d="M13.2,25.3c-4.29-2.035-6.6-6.71-6.6-12.1S8.91,3.135,13.2,1.1" fill="none" stroke="#fff" stroke-miterlimit="10" stroke-width="1.1"/>
    <path id="Path_29" data-name="Path 29" d="M13.2,25.3V1.1" fill="none" stroke="#fff" stroke-miterlimit="10" stroke-width="1.1"/>
    <line id="Line_34" data-name="Line 34" x2="24.2" transform="translate(1.1 13.2)" fill="none" stroke="#fff" stroke-miterlimit="10" stroke-width="1.1"/>
    <circle id="Ellipse_4" data-name="Ellipse 4" cx="12.1" cy="12.1" r="12.1" transform="translate(1.1 1.1)" fill="none" stroke="#fff" stroke-linecap="square" stroke-miterlimit="10" stroke-width="1.1"/>
  </g>
</svg>
